<?xml version="1.0" encoding="UTF-8" standalone="no"?>
<svg xmlns="http://www.w3.org/2000/svg" height="348" version="1.1"
     width="756">
    <defs/>
    <g>
        <g>
            <rect fill="#C0C0C0" fill-opacity="0.2" height="15" stroke="none" transform="matrix(1 0 0 1 -262 -310)"
                  width="40.40761718750002" x="407" y="327"/>
        </g>
        <g>
            <rect fill="#C0C0C0" fill-opacity="0.2" height="58" stroke="none" transform="matrix(1 0 0 1 -262 -310)"
                  width="101.01904296875" x="407" y="341"/>
        </g>
        <g>
            <rect fill="#ffffff" height="57" stroke="none" transform="matrix(1 0 0 1 -262 -310)" width="101.01904296875"
                  x="400" y="335"/>
        </g>
        <g>
            <path d=" M 138 25 L 239.01904296875 25 L 239.01904296875 82 L 138 82 L 138 25 Z Z" fill="none"
                  paint-order="fill stroke markers" stroke="#000000" stroke-dasharray="" stroke-miterlimit="10"/>
        </g>
        <g>
            <rect fill="#ffffff" height="15" stroke="none" transform="matrix(1 0 0 1 -262 -310)"
                  width="40.40761718750002" x="400" y="320"/>
        </g>
        <g>
            <path d=" M 138 10 L 178.40761718750002 10 L 178.40761718750002 25 L 138 25 L 138 10 Z Z" fill="none"
                  paint-order="fill stroke markers" stroke="#000000" stroke-dasharray="" stroke-miterlimit="10"/>
        </g>
        <g>
            <rect fill="#ffffff" height="58" stroke="none" transform="matrix(1 0 0 1 -262 -310)" width="101.01904296875"
                  x="400" y="334"/>
        </g>
        <g>
            <path d=" M 138 24 L 239.01904296875 24 L 239.01904296875 82 L 138 82 L 138 24 Z Z" fill="none"
                  paint-order="fill stroke markers" stroke="#000000" stroke-dasharray="" stroke-miterlimit="10"/>
        </g>
        <g>
            <g>
                <path fill="none" stroke="none"/>
                <text dominant-baseline="central" fill="#000000" font-family="Arial" font-size="13px"
                      font-style="normal" font-weight="bold" stroke="none" text-anchor="middle"
                      text-decoration="undefined" transform="matrix(1 0 0 1 -262 -310)" x="451.009521484375" y="348.5">
                    businessLogic
                </text>
            </g>
        </g>
        <g>
            <rect fill="#C0C0C0" fill-opacity="0.2" height="15" stroke="none" transform="matrix(1 0 0 1 -262 -310)"
                  width="41.60000000000002" x="407" y="455"/>
        </g>
        <g>
            <rect fill="#C0C0C0" fill-opacity="0.2" height="58" stroke="none" transform="matrix(1 0 0 1 -262 -310)"
                  width="104" x="407" y="469"/>
        </g>
        <g>
            <rect fill="#ffffff" height="57" stroke="none" transform="matrix(1 0 0 1 -262 -310)" width="104" x="400"
                  y="463"/>
        </g>
        <g>
            <path d=" M 138 153 L 242 153 L 242 210 L 138 210 L 138 153 Z Z" fill="none"
                  paint-order="fill stroke markers" stroke="#000000" stroke-dasharray="" stroke-miterlimit="10"/>
        </g>
        <g>
            <rect fill="#ffffff" height="15" stroke="none" transform="matrix(1 0 0 1 -262 -310)"
                  width="41.60000000000002" x="400" y="448"/>
        </g>
        <g>
            <path d=" M 138 138 L 179.60000000000002 138 L 179.60000000000002 153 L 138 153 L 138 138 Z Z" fill="none"
                  paint-order="fill stroke markers" stroke="#000000" stroke-dasharray="" stroke-miterlimit="10"/>
        </g>
        <g>
            <rect fill="#ffffff" height="58" stroke="none" transform="matrix(1 0 0 1 -262 -310)" width="104" x="400"
                  y="462"/>
        </g>
        <g>
            <path d=" M 138 152 L 242 152 L 242 210 L 138 210 L 138 152 Z Z" fill="none"
                  paint-order="fill stroke markers" stroke="#000000" stroke-dasharray="" stroke-miterlimit="10"/>
        </g>
        <g>
            <g>
                <path fill="none" stroke="none"/>
                <text dominant-baseline="central" fill="#000000" font-family="Arial" font-size="13px"
                      font-style="normal" font-weight="bold" stroke="none" text-anchor="middle"
                      text-decoration="undefined" transform="matrix(1 0 0 1 -262 -310)" x="452.5" y="476.5">domainModel
                </text>
            </g>
        </g>
        <g>
            <rect fill="#C0C0C0" fill-opacity="0.2" height="15" stroke="none" transform="matrix(1 0 0 1 -262 -310)"
                  width="41.60000000000002" x="583" y="455"/>
        </g>
        <g>
            <rect fill="#C0C0C0" fill-opacity="0.2" height="58" stroke="none" transform="matrix(1 0 0 1 -262 -310)"
                  width="104" x="583" y="469"/>
        </g>
        <g>
            <rect fill="#ffffff" height="57" stroke="none" transform="matrix(1 0 0 1 -262 -310)" width="104" x="576"
                  y="463"/>
        </g>
        <g>
            <path d=" M 314 153 L 418 153 L 418 210 L 314 210 L 314 153 Z Z" fill="none"
                  paint-order="fill stroke markers" stroke="#000000" stroke-dasharray="" stroke-miterlimit="10"/>
        </g>
        <g>
            <rect fill="#ffffff" height="15" stroke="none" transform="matrix(1 0 0 1 -262 -310)"
                  width="41.60000000000002" x="576" y="448"/>
        </g>
        <g>
            <path d=" M 314 138 L 355.6 138 L 355.6 153 L 314 153 L 314 138 Z Z" fill="none"
                  paint-order="fill stroke markers" stroke="#000000" stroke-dasharray="" stroke-miterlimit="10"/>
        </g>
        <g>
            <rect fill="#ffffff" height="58" stroke="none" transform="matrix(1 0 0 1 -262 -310)" width="104" x="576"
                  y="462"/>
        </g>
        <g>
            <path d=" M 314 152 L 418 152 L 418 210 L 314 210 L 314 152 Z Z" fill="none"
                  paint-order="fill stroke markers" stroke="#000000" stroke-dasharray="" stroke-miterlimit="10"/>
        </g>
        <g>
            <g>
                <path fill="none" stroke="none"/>
                <text dominant-baseline="central" fill="#000000" font-family="Arial" font-size="13px"
                      font-style="normal" font-weight="bold" stroke="none" text-anchor="middle"
                      text-decoration="undefined" transform="matrix(1 0 0 1 -262 -310)" x="628.5" y="476.5">DAO
                </text>
            </g>
        </g>
        <g>
            <rect fill="#C0C0C0" fill-opacity="0.2" height="15" stroke="none" transform="matrix(1 0 0 1 -262 -310)"
                  width="41.60000000000002" x="759" y="455"/>
        </g>
        <g>
            <rect fill="#C0C0C0" fill-opacity="0.2" height="58" stroke="none" transform="matrix(1 0 0 1 -262 -310)"
                  width="104" x="759" y="469"/>
        </g>
        <g>
            <rect fill="#ffffff" height="57" stroke="none" transform="matrix(1 0 0 1 -262 -310)" width="104" x="752"
                  y="463"/>
        </g>
        <g>
            <path d=" M 490 153 L 594 153 L 594 210 L 490 210 L 490 153 Z Z" fill="none"
                  paint-order="fill stroke markers" stroke="#000000" stroke-dasharray="" stroke-miterlimit="10"/>
        </g>
        <g>
            <rect fill="#ffffff" height="15" stroke="none" transform="matrix(1 0 0 1 -262 -310)"
                  width="41.60000000000002" x="752" y="448"/>
        </g>
        <g>
            <path d=" M 490 138 L 531.6 138 L 531.6 153 L 490 153 L 490 138 Z Z" fill="none"
                  paint-order="fill stroke markers" stroke="#000000" stroke-dasharray="" stroke-miterlimit="10"/>
        </g>
        <g>
            <rect fill="#ffffff" height="58" stroke="none" transform="matrix(1 0 0 1 -262 -310)" width="104" x="752"
                  y="462"/>
        </g>
        <g>
            <path d=" M 490 152 L 594 152 L 594 210 L 490 210 L 490 152 Z Z" fill="none"
                  paint-order="fill stroke markers" stroke="#000000" stroke-dasharray="" stroke-miterlimit="10"/>
        </g>
        <g>
            <g>
                <path fill="none" stroke="none"/>
                <text dominant-baseline="central" fill="#000000" font-family="Arial" font-size="13px"
                      font-style="normal" font-weight="bold" stroke="none" text-anchor="middle"
                      text-decoration="undefined" transform="matrix(1 0 0 1 -262 -310)" x="804.5" y="476.5">JPA
                </text>
            </g>
        </g>
        <g>
            <rect fill="#C0C0C0" fill-opacity="0.2" height="15" stroke="none" transform="matrix(1 0 0 1 -262 -310)"
                  width="41.60000000000002" x="759" y="583"/>
        </g>
        <g>
            <rect fill="#C0C0C0" fill-opacity="0.2" height="58" stroke="none" transform="matrix(1 0 0 1 -262 -310)"
                  width="104" x="759" y="597"/>
        </g>
        <g>
            <rect fill="#ffffff" height="57" stroke="none" transform="matrix(1 0 0 1 -262 -310)" width="104" x="752"
                  y="591"/>
        </g>
        <g>
            <path d=" M 490 281 L 594 281 L 594 338 L 490 338 L 490 281 Z Z" fill="none"
                  paint-order="fill stroke markers" stroke="#000000" stroke-dasharray="" stroke-miterlimit="10"/>
        </g>
        <g>
            <rect fill="#ffffff" height="15" stroke="none" transform="matrix(1 0 0 1 -262 -310)"
                  width="41.60000000000002" x="752" y="576"/>
        </g>
        <g>
            <path d=" M 490 266 L 531.6 266 L 531.6 281 L 490 281 L 490 266 Z Z" fill="none"
                  paint-order="fill stroke markers" stroke="#000000" stroke-dasharray="" stroke-miterlimit="10"/>
        </g>
        <g>
            <rect fill="#ffffff" height="58" stroke="none" transform="matrix(1 0 0 1 -262 -310)" width="104" x="752"
                  y="590"/>
        </g>
        <g>
            <path d=" M 490 280 L 594 280 L 594 338 L 490 338 L 490 280 Z Z" fill="none"
                  paint-order="fill stroke markers" stroke="#000000" stroke-dasharray="" stroke-miterlimit="10"/>
        </g>
        <g>
            <g>
                <path fill="none" stroke="none"/>
                <text dominant-baseline="central" fill="#000000" font-family="Arial" font-size="13px"
                      font-style="normal" font-weight="bold" stroke="none" text-anchor="middle"
                      text-decoration="undefined" transform="matrix(1 0 0 1 -262 -310)" x="804.5" y="604.5">RDBMS
                </text>
            </g>
        </g>
        <g>
            <rect fill="#ffffff" height="40" stroke="none" transform="matrix(1 0 0 1 -262 -310)" width="96" x="912"
                  y="592"/>
        </g>
        <g>
            <path d=" M 650 282 L 746 282 L 746 322 L 650 322 L 650 282 Z Z" fill="none"
                  paint-order="fill stroke markers" stroke="#000000" stroke-dasharray="" stroke-miterlimit="10"/>
        </g>
        <g>
            <g>
                <path fill="none" stroke="none"/>
                <text dominant-baseline="text-before-edge" fill="#000000" font-family="Arial" font-size="13px"
                      font-style="normal" font-weight="normal" stroke="none" text-anchor="middle"
                      text-decoration="undefined" transform="matrix(1 0 0 1 -262 -310)" x="960" y="605">H2
                </text>
            </g>
        </g>
        <g>
            <path d=" M 189 83 L 189 137" fill="none" paint-order="fill stroke markers" stroke="#000000"
                  stroke-dasharray="3" stroke-miterlimit="10"/>
        </g>
        <g>
            <path d=" M 184.790482243984 126.83732514237585 L 189 137 L 193.209517756016 126.83732514237585" fill="none"
                  paint-order="fill stroke markers" stroke="#000000" stroke-dasharray="" stroke-miterlimit="10"/>
        </g>
        <g>
            <path d=" M 239 58 L 370 58 L 370 138" fill="none" paint-order="fill stroke markers" stroke="#000000"
                  stroke-dasharray="3" stroke-miterlimit="10"/>
        </g>
        <g>
            <path d=" M 365.790482243984 127.83732514237585 L 370 138 L 374.209517756016 127.83732514237585" fill="none"
                  paint-order="fill stroke markers" stroke="#000000" stroke-dasharray="" stroke-miterlimit="10"/>
        </g>
        <g>
            <path d=" M 313 174 L 243 174" fill="none" paint-order="fill stroke markers" stroke="#000000"
                  stroke-dasharray="3" stroke-miterlimit="10"/>
        </g>
        <g>
            <path d=" M 253.1626748576241 169.790482243984 L 243 174 L 253.1626748576241 178.209517756016" fill="none"
                  paint-order="fill stroke markers" stroke="#000000" stroke-dasharray="" stroke-miterlimit="10"/>
        </g>
        <g>
            <path d=" M 419 174 L 489 174" fill="none" paint-order="fill stroke markers" stroke="#000000"
                  stroke-dasharray="3" stroke-miterlimit="10"/>
        </g>
        <g>
            <path d=" M 478.8373251423759 178.209517756016 L 489 174 L 478.8373251423758 169.790482243984" fill="none"
                  paint-order="fill stroke markers" stroke="#000000" stroke-dasharray="" stroke-miterlimit="10"/>
        </g>
        <g>
            <path d=" M 542 211 L 542 265" fill="none" paint-order="fill stroke markers" stroke="#000000"
                  stroke-dasharray="3" stroke-miterlimit="10"/>
        </g>
        <g>
            <path d=" M 537.790482243984 254.8373251423759 L 542 265 L 546.209517756016 254.8373251423759" fill="none"
                  paint-order="fill stroke markers" stroke="#000000" stroke-dasharray="" stroke-miterlimit="10"/>
        </g>
        <g>
            <path d=" M 594 302 L 650 302" fill="none" paint-order="fill stroke markers" stroke="#000000"
                  stroke-dasharray="3" stroke-miterlimit="10"/>
        </g>
        <g>
            <path d=" M 29.160000000000025 27.850000000000023 C 29.160000000000025 22.96227952000004 33.117802368000014 19 38 19 C 42.882197631999986 19 46.839999999999975 22.96227952000004 46.839999999999975 27.850000000000023 C 46.839999999999975 32.73772048000001 42.882197631999986 36.69999999999999 38 36.69999999999999 C 33.117802368000014 36.69999999999999 29.160000000000025 32.73772048000001 29.160000000000025 27.850000000000023 Z"
                  fill="#ffffff" paint-order="stroke fill markers" stroke="none"/>
        </g>
        <g>
            <path d=" M 29.160000000000025 27.850000000000023 C 29.160000000000025 22.96227952000004 33.117802368000014 19 38 19 C 42.882197631999986 19 46.839999999999975 22.96227952000004 46.839999999999975 27.850000000000023 C 46.839999999999975 32.73772048000001 42.882197631999986 36.69999999999999 38 36.69999999999999 C 33.117802368000014 36.69999999999999 29.160000000000025 32.73772048000001 29.160000000000025 27.850000000000023 Z"
                  fill="none" paint-order="fill stroke markers" stroke="#000000" stroke-dasharray=""
                  stroke-miterlimit="10"/>
        </g>
        <g>
            <path d=" M 38 36.69999999999999 L 38 54.30000000000001" fill="none" paint-order="fill stroke markers"
                  stroke="#000000" stroke-dasharray="" stroke-miterlimit="10"/>
        </g>
        <g>
            <path d=" M 28.639999999999986 43.30000000000001 L 47.360000000000014 43.30000000000001" fill="none"
                  paint-order="fill stroke markers" stroke="#000000" stroke-dasharray="" stroke-miterlimit="10"/>
        </g>
        <g>
            <path d=" M 38 54.30000000000001 L 25 72" fill="none" paint-order="fill stroke markers" stroke="#000000"
                  stroke-dasharray="" stroke-miterlimit="10"/>
        </g>
        <g>
            <path d=" M 38 54.30000000000001 L 51 72" fill="none" paint-order="fill stroke markers" stroke="#000000"
                  stroke-dasharray="" stroke-miterlimit="10"/>
        </g>
        <g>
            <g>
                <path fill="none" stroke="none"/>
                <text dominant-baseline="central" fill="#000000" font-family="Arial" font-size="13px"
                      font-style="normal" font-weight="bold" stroke="none" text-anchor="middle"
                      text-decoration="undefined" transform="matrix(1 0 0 1 -262 -310)" x="300.5" y="396.5"/>
            </g>
        </g>
        <g>
            <path d=" M 66 56 L 138 56" fill="none" paint-order="fill stroke markers" stroke="#000000"
                  stroke-dasharray="3" stroke-miterlimit="10"/>
        </g>
        <g>
            <path d=" M 127.83732514237585 60.209517756016 L 138 56 L 127.83732514237585 51.790482243984" fill="none"
                  paint-order="fill stroke markers" stroke="#000000" stroke-dasharray="" stroke-miterlimit="10"/>
        </g>
    </g>
</svg>