<?xml version="1.0" encoding="UTF-8" standalone="no"?><svg xmlns="http://www.w3.org/2000/svg" xmlns:xlink="http://www.w3.org/1999/xlink" height="692" version="1.1" width="523.95703125"><defs/><g><g><rect fill="#C0C0C0" fill-opacity="0.2" height="118" stroke="none" transform="matrix(1 0 0 1 -70 -174)" width="150.6689453125" x="263" y="209"/></g><g><rect fill="#C0C0C0" fill-opacity="0.2" height="23" stroke="none" transform="matrix(1 0 0 1 -70 -174)" width="17.94091796875" x="405.72802734375" y="191"/></g><g><rect fill="#ffffff" height="118" stroke="none" transform="matrix(1 0 0 1 -70 -174)" width="150.6689453125" x="256" y="202"/></g><g><path d=" M 186 28 L 336.6689453125 28 L 336.6689453125 146 L 186 146 L 186 28 Z Z" fill="none" paint-order="fill stroke markers" stroke="#000000" stroke-dasharray="" stroke-miterlimit="10"/></g><g><path d=" M 186 53 L 337.6689453125 53" fill="none" paint-order="fill stroke markers" stroke="#000000" stroke-dasharray="" stroke-miterlimit="10"/></g><g><path d=" M 186 63 L 337.6689453125 63" fill="none" paint-order="fill stroke markers" stroke="#000000" stroke-dasharray="" stroke-miterlimit="10"/></g><g><g><path fill="none" stroke="none"/><text dominant-baseline="central" fill="#000000" font-family="Arial" font-size="13px" font-style="italic" font-weight="bold" stroke="none" text-anchor="middle" text-decoration="undefined" transform="matrix(1 0 0 1 -70 -174)" x="331.83447265625" y="215.5">DAO</text></g></g><g><g><path fill="none" stroke="none"/><text dominant-baseline="central" fill="#000000" font-family="Arial" font-size="13px" font-style="normal" font-weight="normal" stroke="none" text-anchor="start" text-decoration="undefined" transform="matrix(1 0 0 1 -70 -174)" x="261" y="248.5">+get(id: long): T</text></g></g><g><g><path fill="none" stroke="none"/><text dominant-baseline="central" fill="#000000" font-family="Arial" font-size="13px" font-style="normal" font-weight="normal" stroke="none" text-anchor="start" text-decoration="undefined" transform="matrix(1 0 0 1 -70 -174)" x="261" y="263.5">+getAll(): List</text></g></g><g><g><path fill="none" stroke="none"/><text dominant-baseline="central" fill="#000000" font-family="Arial" font-size="13px" font-style="normal" font-weight="normal" stroke="none" text-anchor="start" text-decoration="undefined" transform="matrix(1 0 0 1 -70 -174)" x="261" y="278.5">+save(t: T)</text></g></g><g><g><path fill="none" stroke="none"/><text dominant-baseline="central" fill="#000000" font-family="Arial" font-size="13px" font-style="normal" font-weight="normal" stroke="none" text-anchor="start" text-decoration="undefined" transform="matrix(1 0 0 1 -70 -174)" x="261" y="293.5">+update(t: T)</text></g></g><g><g><path fill="none" stroke="none"/><text dominant-baseline="central" fill="#000000" font-family="Arial" font-size="13px" font-style="normal" font-weight="normal" stroke="none" text-anchor="start" text-decoration="undefined" transform="matrix(1 0 0 1 -70 -174)" x="261" y="308.5">+delete(t: T)</text></g></g><g><rect fill="#ffffff" height="23" stroke="none" transform="matrix(1 0 0 1 -70 -174)" width="17.94091796875" x="398.72802734375" y="184"/></g><g><path d=" M 328.72802734375 10 L 346.6689453125 10 L 346.6689453125 33 L 328.72802734375 33 L 328.72802734375 10 Z Z" fill="none" paint-order="fill stroke markers" stroke="#000000" stroke-dasharray="3" stroke-miterlimit="10"/></g><g><g><path fill="none" stroke="none"/><text dominant-baseline="central" fill="#000000" font-family="Arial" font-size="13px" font-style="normal" font-weight="normal" stroke="none" text-anchor="start" text-decoration="undefined" transform="matrix(1 0 0 1 -70 -174)" x="403.72802734375" y="195.5">T</text></g></g><g><rect fill="#C0C0C0" fill-opacity="0.2" height="118" stroke="none" transform="matrix(1 0 0 1 -70 -174)" width="205.95703125" x="87" y="425"/></g><g><rect fill="#C0C0C0" fill-opacity="0.2" height="23" stroke="none" transform="matrix(1 0 0 1 -70 -174)" width="102.49169921875" x="200.46533203125" y="407"/></g><g><rect fill="#ffffff" height="118" stroke="none" transform="matrix(1 0 0 1 -70 -174)" width="205.95703125" x="80" y="418"/></g><g><path d=" M 10 244 L 215.95703125 244 L 215.95703125 362 L 10 362 L 10 244 Z Z" fill="none" paint-order="fill stroke markers" stroke="#000000" stroke-dasharray="" stroke-miterlimit="10"/></g><g><path d=" M 10 269 L 216.95703125 269" fill="none" paint-order="fill stroke markers" stroke="#000000" stroke-dasharray="" stroke-miterlimit="10"/></g><g><path d=" M 10 279 L 216.95703125 279" fill="none" paint-order="fill stroke markers" stroke="#000000" stroke-dasharray="" stroke-miterlimit="10"/></g><g><g><path fill="none" stroke="none"/><text dominant-baseline="central" fill="#000000" font-family="Arial" font-size="13px" font-style="normal" font-weight="bold" stroke="none" text-anchor="middle" text-decoration="undefined" transform="matrix(1 0 0 1 -70 -174)" x="183.478515625" y="431.5">ConcreteDAO1</text></g></g><g><g><path fill="none" stroke="none"/><text dominant-baseline="central" fill="#000000" font-family="Arial" font-size="13px" font-style="normal" font-weight="normal" stroke="none" text-anchor="start" text-decoration="undefined" transform="matrix(1 0 0 1 -70 -174)" x="85" y="464.5">+get(id: long): ConcreteEntity1</text></g></g><g><g><path fill="none" stroke="none"/><text dominant-baseline="central" fill="#000000" font-family="Arial" font-size="13px" font-style="normal" font-weight="normal" stroke="none" text-anchor="start" text-decoration="undefined" transform="matrix(1 0 0 1 -70 -174)" x="85" y="479.5">+getAll(): List</text></g></g><g><g><path fill="none" stroke="none"/><text dominant-baseline="central" fill="#000000" font-family="Arial" font-size="13px" font-style="normal" font-weight="normal" stroke="none" text-anchor="start" text-decoration="undefined" transform="matrix(1 0 0 1 -70 -174)" x="85" y="494.5">+save(e: ConcreteEntity1)</text></g></g><g><g><path fill="none" stroke="none"/><text dominant-baseline="central" fill="#000000" font-family="Arial" font-size="13px" font-style="normal" font-weight="normal" stroke="none" text-anchor="start" text-decoration="undefined" transform="matrix(1 0 0 1 -70 -174)" x="85" y="509.5">+update(e: ConcreteEntity1)</text></g></g><g><g><path fill="none" stroke="none"/><text dominant-baseline="central" fill="#000000" font-family="Arial" font-size="13px" font-style="normal" font-weight="normal" stroke="none" text-anchor="start" text-decoration="undefined" transform="matrix(1 0 0 1 -70 -174)" x="85" y="524.5">+delete(e: ConcreteEntity1)</text></g></g><g><rect fill="#ffffff" height="23" stroke="none" transform="matrix(1 0 0 1 -70 -174)" width="102.49169921875" x="193.46533203125" y="400"/></g><g><path d=" M 123.46533203125 226 L 225.95703125 226 L 225.95703125 249 L 123.46533203125 249 L 123.46533203125 226 Z Z" fill="none" paint-order="fill stroke markers" stroke="#000000" stroke-dasharray="3" stroke-miterlimit="10"/></g><g><g><path fill="none" stroke="none"/><text dominant-baseline="central" fill="#000000" font-family="Arial" font-size="13px" font-style="normal" font-weight="normal" stroke="none" text-anchor="start" text-decoration="undefined" transform="matrix(1 0 0 1 -70 -174)" x="198.46533203125" y="411.5">ConcreteEntity1</text></g></g><g><rect fill="#C0C0C0" fill-opacity="0.2" height="118" stroke="none" transform="matrix(1 0 0 1 -70 -174)" width="205.95703125" x="375" y="425"/></g><g><rect fill="#C0C0C0" fill-opacity="0.2" height="23" stroke="none" transform="matrix(1 0 0 1 -70 -174)" width="102.49169921875" x="488.46533203125" y="407"/></g><g><rect fill="#ffffff" height="118" stroke="none" transform="matrix(1 0 0 1 -70 -174)" width="205.95703125" x="368" y="418"/></g><g><path d=" M 298 244 L 503.95703125 244 L 503.95703125 362 L 298 362 L 298 244 Z Z" fill="none" paint-order="fill stroke markers" stroke="#000000" stroke-dasharray="" stroke-miterlimit="10"/></g><g><path d=" M 298 269 L 504.95703125 269" fill="none" paint-order="fill stroke markers" stroke="#000000" stroke-dasharray="" stroke-miterlimit="10"/></g><g><path d=" M 298 279 L 504.95703125 279" fill="none" paint-order="fill stroke markers" stroke="#000000" stroke-dasharray="" stroke-miterlimit="10"/></g><g><g><path fill="none" stroke="none"/><text dominant-baseline="central" fill="#000000" font-family="Arial" font-size="13px" font-style="normal" font-weight="bold" stroke="none" text-anchor="middle" text-decoration="undefined" transform="matrix(1 0 0 1 -70 -174)" x="471.478515625" y="431.5">ConcreteDAO2</text></g></g><g><g><path fill="none" stroke="none"/><text dominant-baseline="central" fill="#000000" font-family="Arial" font-size="13px" font-style="normal" font-weight="normal" stroke="none" text-anchor="start" text-decoration="undefined" transform="matrix(1 0 0 1 -70 -174)" x="373" y="464.5">+get(id: long): ConcreteEntity2</text></g></g><g><g><path fill="none" stroke="none"/><text dominant-baseline="central" fill="#000000" font-family="Arial" font-size="13px" font-style="normal" font-weight="normal" stroke="none" text-anchor="start" text-decoration="undefined" transform="matrix(1 0 0 1 -70 -174)" x="373" y="479.5">+getAll(): List</text></g></g><g><g><path fill="none" stroke="none"/><text dominant-baseline="central" fill="#000000" font-family="Arial" font-size="13px" font-style="normal" font-weight="normal" stroke="none" text-anchor="start" text-decoration="undefined" transform="matrix(1 0 0 1 -70 -174)" x="373" y="494.5">+save(e: ConcreteEntity2)</text></g></g><g><g><path fill="none" stroke="none"/><text dominant-baseline="central" fill="#000000" font-family="Arial" font-size="13px" font-style="normal" font-weight="normal" stroke="none" text-anchor="start" text-decoration="undefined" transform="matrix(1 0 0 1 -70 -174)" x="373" y="509.5">+update(e: ConcreteEntity2)</text></g></g><g><g><path fill="none" stroke="none"/><text dominant-baseline="central" fill="#000000" font-family="Arial" font-size="13px" font-style="normal" font-weight="normal" stroke="none" text-anchor="start" text-decoration="undefined" transform="matrix(1 0 0 1 -70 -174)" x="373" y="524.5">+delete(e: ConcreteEntity2)</text></g></g><g><rect fill="#ffffff" height="23" stroke="none" transform="matrix(1 0 0 1 -70 -174)" width="102.49169921875" x="481.46533203125" y="400"/></g><g><path d=" M 411.46533203125 226 L 513.95703125 226 L 513.95703125 249 L 411.46533203125 249 L 411.46533203125 226 Z Z" fill="none" paint-order="fill stroke markers" stroke="#000000" stroke-dasharray="3" stroke-miterlimit="10"/></g><g><g><path fill="none" stroke="none"/><text dominant-baseline="central" fill="#000000" font-family="Arial" font-size="13px" font-style="normal" font-weight="normal" stroke="none" text-anchor="start" text-decoration="undefined" transform="matrix(1 0 0 1 -70 -174)" x="486.46533203125" y="411.5">ConcreteEntity2</text></g></g><g><path d=" M 114 226 L 114 194 L 266 194 L 266 146" fill="none" paint-order="fill stroke markers" stroke="#000000" stroke-dasharray="" stroke-miterlimit="10"/></g><g><path d=" M 274.419035512032 166.3253497152483 L 266 146 L 257.580964487968 166.3253497152483" fill="#FFFFFF" paint-order="stroke fill markers" stroke="none"/></g><g><path d=" M 274.419035512032 166.3253497152483 L 266 146 L 257.580964487968 166.3253497152483 L 274.419035512032 166.3253497152483" fill="none" paint-order="fill stroke markers" stroke="#000000" stroke-dasharray="" stroke-miterlimit="10"/></g><g><path d=" M 402 226 L 402 194 L 266 194 L 266 146" fill="none" paint-order="fill stroke markers" stroke="#000000" stroke-dasharray="" stroke-miterlimit="10"/></g><g><path d=" M 274.419035512032 166.3253497152483 L 266 146 L 257.580964487968 166.3253497152483" fill="#FFFFFF" paint-order="stroke fill markers" stroke="none"/></g><g><path d=" M 274.419035512032 166.3253497152483 L 266 146 L 257.580964487968 166.3253497152483 L 274.419035512032 166.3253497152483" fill="none" paint-order="fill stroke markers" stroke="#000000" stroke-dasharray="" stroke-miterlimit="10"/></g><g><rect fill="#C0C0C0" fill-opacity="0.2" height="96" stroke="none" transform="matrix(1 0 0 1 -70 -174)" width="152" x="119" y="607"/></g><g><rect fill="#ffffff" height="96" stroke="none" transform="matrix(1 0 0 1 -70 -174)" width="152" x="112" y="600"/></g><g><path d=" M 42 426 L 194 426 L 194 522 L 42 522 L 42 426 Z Z" fill="none" paint-order="fill stroke markers" stroke="#000000" stroke-dasharray="" stroke-miterlimit="10"/></g><g><path d=" M 42 451 L 195 451" fill="none" paint-order="fill stroke markers" stroke="#000000" stroke-dasharray="" stroke-miterlimit="10"/></g><g><path d=" M 42 461 L 195 461" fill="none" paint-order="fill stroke markers" stroke="#000000" stroke-dasharray="" stroke-miterlimit="10"/></g><g><g><path fill="none" stroke="none"/><text dominant-baseline="central" fill="#000000" font-family="Arial" font-size="13px" font-style="normal" font-weight="bold" stroke="none" text-anchor="middle" text-decoration="undefined" transform="matrix(1 0 0 1 -70 -174)" x="188.5" y="613.5">ConcreteEntity1</text></g></g><g><path d=" M 120 362 L 120 426" fill="none" paint-order="fill stroke markers" stroke="#000000" stroke-dasharray="3" stroke-miterlimit="10"/></g><g><path d=" M 111.58096448796803 405.6746502847517 L 120 426 L 128.41903551203197 405.6746502847517" fill="#FFFFFF" paint-order="stroke fill markers" stroke="none"/></g><g><path d=" M 111.58096448796803 405.6746502847517 L 120 426 L 128.41903551203197 405.6746502847517 L 111.58096448796803 405.6746502847517" fill="none" paint-order="fill stroke markers" stroke="#000000" stroke-dasharray="" stroke-miterlimit="10"/></g><g><rect fill="#ffffff" height="13" stroke="none" transform="matrix(1 0 0 1 -70 -174)" width="39.0380859375" x="200" y="561"/></g><g><g><path fill="none" stroke="none"/><text dominant-baseline="central" fill="#000000" font-family="Arial" font-size="13px" font-style="normal" font-weight="normal" stroke="none" text-anchor="middle" text-decoration="undefined" transform="matrix(1 0 0 1 -70 -174)" x="219.51904296875" y="567.5">«bind»</text></g></g><g><rect fill="#C0C0C0" fill-opacity="0.2" height="96" stroke="none" transform="matrix(1 0 0 1 -70 -174)" width="152" x="399" y="607"/></g><g><rect fill="#ffffff" height="96" stroke="none" transform="matrix(1 0 0 1 -70 -174)" width="152" x="392" y="600"/></g><g><path d=" M 322 426 L 474 426 L 474 522 L 322 522 L 322 426 Z Z" fill="none" paint-order="fill stroke markers" stroke="#000000" stroke-dasharray="" stroke-miterlimit="10"/></g><g><path d=" M 322 451 L 475 451" fill="none" paint-order="fill stroke markers" stroke="#000000" stroke-dasharray="" stroke-miterlimit="10"/></g><g><path d=" M 322 461 L 475 461" fill="none" paint-order="fill stroke markers" stroke="#000000" stroke-dasharray="" stroke-miterlimit="10"/></g><g><g><path fill="none" stroke="none"/><text dominant-baseline="central" fill="#000000" font-family="Arial" font-size="13px" font-style="normal" font-weight="bold" stroke="none" text-anchor="middle" text-decoration="undefined" transform="matrix(1 0 0 1 -70 -174)" x="468.5" y="613.5">ConcreteEntity1</text></g></g><g><path d=" M 394 362 L 394 426" fill="none" paint-order="fill stroke markers" stroke="#000000" stroke-dasharray="3" stroke-miterlimit="10"/></g><g><path d=" M 385.580964487968 405.6746502847517 L 394 426 L 402.419035512032 405.6746502847517" fill="#FFFFFF" paint-order="stroke fill markers" stroke="none"/></g><g><path d=" M 385.580964487968 405.6746502847517 L 394 426 L 402.419035512032 405.6746502847517 L 385.580964487968 405.6746502847517" fill="none" paint-order="fill stroke markers" stroke="#000000" stroke-dasharray="" stroke-miterlimit="10"/></g><g><rect fill="#ffffff" height="13" stroke="none" transform="matrix(1 0 0 1 -70 -174)" width="39.0380859375" x="474" y="561"/></g><g><g><path fill="none" stroke="none"/><text dominant-baseline="central" fill="#000000" font-family="Arial" font-size="13px" font-style="normal" font-weight="normal" stroke="none" text-anchor="middle" text-decoration="undefined" transform="matrix(1 0 0 1 -70 -174)" x="493.51904296875" y="567.5">«bind»</text></g></g><g><rect fill="#C0C0C0" fill-opacity="0.2" height="64" stroke="none" transform="matrix(1 0 0 1 -70 -174)" width="128" x="279" y="799"/></g><g><rect fill="#ffffff" height="64" stroke="none" transform="matrix(1 0 0 1 -70 -174)" width="128" x="272" y="792"/></g><g><path d=" M 202 618 L 330 618 L 330 682 L 202 682 L 202 618 Z Z" fill="none" paint-order="fill stroke markers" stroke="#000000" stroke-dasharray="" stroke-miterlimit="10"/></g><g><path d=" M 202 643 L 331 643" fill="none" paint-order="fill stroke markers" stroke="#000000" stroke-dasharray="" stroke-miterlimit="10"/></g><g><path d=" M 202 666 L 331 666" fill="none" paint-order="fill stroke markers" stroke="#000000" stroke-dasharray="" stroke-miterlimit="10"/></g><g><g><path fill="none" stroke="none"/><text dominant-baseline="central" fill="#000000" font-family="Arial" font-size="13px" font-style="italic" font-weight="bold" stroke="none" text-anchor="middle" text-decoration="undefined" transform="matrix(1 0 0 1 -70 -174)" x="336.5" y="805.5">Entity</text></g></g><g><g><path fill="none" stroke="none"/><text dominant-baseline="central" fill="#000000" font-family="Arial" font-size="13px" font-style="normal" font-weight="normal" stroke="none" text-anchor="start" text-decoration="undefined" transform="matrix(1 0 0 1 -70 -174)" x="277" y="828.5">+id: long</text></g></g><g><path d=" M 122 522 L 122 562 L 266 562 L 266 618" fill="none" paint-order="fill stroke markers" stroke="#000000" stroke-dasharray="" stroke-miterlimit="10"/></g><g><path d=" M 257.580964487968 597.6746502847517 L 266 618 L 274.419035512032 597.6746502847517" fill="#FFFFFF" paint-order="stroke fill markers" stroke="none"/></g><g><path d=" M 257.580964487968 597.6746502847517 L 266 618 L 274.419035512032 597.6746502847517 L 257.580964487968 597.6746502847517" fill="none" paint-order="fill stroke markers" stroke="#000000" stroke-dasharray="" stroke-miterlimit="10"/></g><g><path d=" M 394 522 L 394 562 L 266 562 L 266 618" fill="none" paint-order="fill stroke markers" stroke="#000000" stroke-dasharray="" stroke-miterlimit="10"/></g><g><path d=" M 257.580964487968 597.6746502847517 L 266 618 L 274.419035512032 597.6746502847517" fill="#FFFFFF" paint-order="stroke fill markers" stroke="none"/></g><g><path d=" M 257.580964487968 597.6746502847517 L 266 618 L 274.419035512032 597.6746502847517 L 257.580964487968 597.6746502847517" fill="none" paint-order="fill stroke markers" stroke="#000000" stroke-dasharray="" stroke-miterlimit="10"/></g></g></svg>