<?xml version="1.0" encoding="UTF-8" standalone="no"?>
<svg xmlns="http://www.w3.org/2000/svg" height="964" version="1.1" width="1260"><defs/><g><g><path d=" M 10 10 L 1250 10 L 1250 954 L 10 954 L 10 10" fill="none" paint-order="fill stroke markers" stroke="#000000" stroke-dasharray="" stroke-miterlimit="10"/></g><g><path d=" M 10 10 L 10 33 L 146.6435546875 33 L 158.1435546875 21.5 L 158.1435546875 10 L 10 10" fill="#ffffff" paint-order="stroke fill markers" stroke="none"/></g><g><path d=" M 10 10 L 10 33 L 146.6435546875 33 L 158.1435546875 21.5 L 158.1435546875 10 L 10 10 L 10 10" fill="none" paint-order="fill stroke markers" stroke="#000000" stroke-dasharray="" stroke-miterlimit="10"/></g><g><g><path fill="none" stroke="none"/><text dominant-baseline="central" fill="#000000" font-family="Arial" font-size="13px" font-style="normal" font-weight="normal" stroke="none" text-anchor="middle" text-decoration="undefined" transform="matrix(1 0 0 1 -102 -6)" x="190.186767578125" y="27.5">ModifyUserPlaylist</text></g></g><g><g><path fill="none" stroke="none"/><text dominant-baseline="central" fill="#000000" font-family="Arial" font-size="13px" font-style="normal" font-weight="bold" stroke="none" text-anchor="middle" text-decoration="undefined" transform="matrix(1 0 0 1 -102 -6)" x="123.864990234375" y="27.5">sd</text></g></g><g><rect fill="#C0C0C0" fill-opacity="0.2" height="40" stroke="none" transform="matrix(1 0 0 1 -102 -6)" width="104.51904296875" x="391" y="47"/></g><g><rect fill="#ffffff" height="40" stroke="none" transform="matrix(1 0 0 1 -102 -6)" width="104.51904296875" x="384" y="40"/></g><g><path d=" M 282 34 L 386.51904296875 34 L 386.51904296875 74 L 282 74 L 282 34 Z Z" fill="none" paint-order="fill stroke markers" stroke="#000000" stroke-dasharray="" stroke-miterlimit="10"/></g><g><g><path fill="none" stroke="none"/><text dominant-baseline="central" fill="#000000" font-family="Arial" font-size="13px" font-style="normal" font-weight="bold" stroke="none" text-anchor="middle" text-decoration="undefined" transform="matrix(1 0 0 1 -102 -6)" x="436.759521484375" y="53.5">LoginHandler</text></g></g><g><path d=" M 334.5 75 L 334.5 938" fill="none" paint-order="fill stroke markers" stroke="#000000" stroke-dasharray="3" stroke-miterlimit="10"/></g><g><rect fill="#C0C0C0" fill-opacity="0.2" height="40" stroke="none" transform="matrix(1 0 0 1 -102 -6)" width="104.6170654296875" x="527" y="47"/></g><g><rect fill="#ffffff" height="40" stroke="none" transform="matrix(1 0 0 1 -102 -6)" width="104.6170654296875" x="520" y="40"/></g><g><path d=" M 418 34 L 522.6170654296875 34 L 522.6170654296875 74 L 418 74 L 418 34 Z Z" fill="none" paint-order="fill stroke markers" stroke="#000000" stroke-dasharray="" stroke-miterlimit="10"/></g><g><g><path fill="none" stroke="none"/><text dominant-baseline="central" fill="#000000" font-family="Arial" font-size="13px" font-style="normal" font-weight="bold" stroke="none" text-anchor="middle" text-decoration="undefined" transform="matrix(1 0 0 1 -102 -6)" x="572.8085327148438" y="53.5">HomeHandler</text></g></g><g><path d=" M 470.5 75 L 470.5 938" fill="none" paint-order="fill stroke markers" stroke="#000000" stroke-dasharray="3" stroke-miterlimit="10"/></g><g><rect fill="#C0C0C0" fill-opacity="0.2" height="40" stroke="none" transform="matrix(1 0 0 1 -102 -6)" width="142.83349609375" x="655" y="47"/></g><g><rect fill="#ffffff" height="40" stroke="none" transform="matrix(1 0 0 1 -102 -6)" width="142.83349609375" x="648" y="40"/></g><g><path d=" M 546 34 L 688.83349609375 34 L 688.83349609375 74 L 546 74 L 546 34 Z Z" fill="none" paint-order="fill stroke markers" stroke="#000000" stroke-dasharray="" stroke-miterlimit="10"/></g><g><g><path fill="none" stroke="none"/><text dominant-baseline="central" fill="#000000" font-family="Arial" font-size="13px" font-style="normal" font-weight="bold" stroke="none" text-anchor="middle" text-decoration="undefined" transform="matrix(1 0 0 1 -102 -6)" x="719.916748046875" y="53.5">UserPlaylistHandler</text></g></g><g><path d=" M 617.5 75 L 617.5 938" fill="none" paint-order="fill stroke markers" stroke="#000000" stroke-dasharray="3" stroke-miterlimit="10"/></g><g><rect fill="#C0C0C0" fill-opacity="0.2" height="40" stroke="none" transform="matrix(1 0 0 1 -102 -6)" width="143.31591796875" x="823" y="47"/></g><g><rect fill="#ffffff" height="40" stroke="none" transform="matrix(1 0 0 1 -102 -6)" width="143.31591796875" x="816" y="40"/></g><g><path d=" M 714 34 L 857.31591796875 34 L 857.31591796875 74 L 714 74 L 714 34 Z Z" fill="none" paint-order="fill stroke markers" stroke="#000000" stroke-dasharray="" stroke-miterlimit="10"/></g><g><g><path fill="none" stroke="none"/><text dominant-baseline="central" fill="#000000" font-family="Arial" font-size="13px" font-style="normal" font-weight="bold" stroke="none" text-anchor="middle" text-decoration="undefined" transform="matrix(1 0 0 1 -102 -6)" x="888.157958984375" y="53.5">PlaylistViewHandler</text></g></g><g><path d=" M 786.5 75 L 786.5 938" fill="none" paint-order="fill stroke markers" stroke="#000000" stroke-dasharray="3" stroke-miterlimit="10"/></g><g><rect fill="#C0C0C0" fill-opacity="0.2" height="40" stroke="none" transform="matrix(1 0 0 1 -102 -6)" width="157.9853515625" x="983" y="47"/></g><g><rect fill="#ffffff" height="40" stroke="none" transform="matrix(1 0 0 1 -102 -6)" width="157.9853515625" x="976" y="40"/></g><g><path d=" M 874 34 L 1031.9853515625 34 L 1031.9853515625 74 L 874 74 L 874 34 Z Z" fill="none" paint-order="fill stroke markers" stroke="#000000" stroke-dasharray="" stroke-miterlimit="10"/></g><g><g><path fill="none" stroke="none"/><text dominant-baseline="central" fill="#000000" font-family="Arial" font-size="13px" font-style="normal" font-weight="bold" stroke="none" text-anchor="middle" text-decoration="undefined" transform="matrix(1 0 0 1 -102 -6)" x="1055.49267578125" y="53.5">PlaylistUpdateHandler</text></g></g><g><path d=" M 953.5 75 L 953.5 938" fill="none" paint-order="fill stroke markers" stroke="#000000" stroke-dasharray="3" stroke-miterlimit="10"/></g><g><rect fill="#C0C0C0" fill-opacity="0.2" height="40" stroke="none" transform="matrix(1 0 0 1 -102 -6)" width="139.91357421875" x="143" y="47"/></g><g><rect fill="#ffffff" height="40" stroke="none" transform="matrix(1 0 0 1 -102 -6)" width="139.91357421875" x="136" y="40"/></g><g><path d=" M 34 34 L 173.91357421875 34 L 173.91357421875 74 L 34 74 L 34 34 Z Z" fill="none" paint-order="fill stroke markers" stroke="#000000" stroke-dasharray="" stroke-miterlimit="10"/></g><g><g><path fill="none" stroke="none"/><text dominant-baseline="central" fill="#000000" font-family="Arial" font-size="13px" font-style="normal" font-weight="bold" stroke="none" text-anchor="middle" text-decoration="undefined" transform="matrix(1 0 0 1 -102 -6)" x="206.456787109375" y="53.5">NavigationManager</text></g></g><g><path d=" M 104.5 75 L 104.5 938" fill="none" paint-order="fill stroke markers" stroke="#000000" stroke-dasharray="3" stroke-miterlimit="10"/></g><g><path d=" M 105 91 L 135 91 L 135 111 L 111 111" fill="none" paint-order="fill stroke markers" stroke="#000000" stroke-dasharray="" stroke-miterlimit="10"/></g><g><path d=" M 121.16267485762415 106.79048224398402 L 111 111 L 121.16267485762415 115.20951775601598" fill="#000000" paint-order="stroke fill markers" stroke="none"/></g><g><path d=" M 121.16267485762415 106.79048224398402 L 111 111 L 121.16267485762415 115.20951775601598 L 121.16267485762415 106.79048224398402" fill="none" paint-order="fill stroke markers" stroke="#000000" stroke-dasharray="" stroke-miterlimit="10"/></g><g><rect fill="#ffffff" height="13" stroke="none" transform="matrix(1 0 0 1 -102 -6)" width="78.04443359375" x="238" y="104"/></g><g><g><path fill="none" stroke="none"/><text dominant-baseline="central" fill="#000000" font-family="Arial" font-size="13px" font-style="normal" font-weight="normal" stroke="none" text-anchor="middle" text-decoration="undefined" transform="matrix(1 0 0 1 -102 -6)" x="277.022216796875" y="110.5">1 : start(void)</text></g></g><g><rect fill="#ffffff" height="774" stroke="none" transform="matrix(1 0 0 1 -102 -6)" width="14" x="199" y="117"/></g><g><path d=" M 97 111 L 111 111 L 111 885 L 97 885 L 97 111 Z Z" fill="none" paint-order="fill stroke markers" stroke="#000000" stroke-dasharray="" stroke-miterlimit="10"/></g><g><path d=" M 111 114 L 141 114 L 141 134 L 118 134" fill="none" paint-order="fill stroke markers" stroke="#000000" stroke-dasharray="" stroke-miterlimit="10"/></g><g><path d=" M 128.16267485762415 129.790482243984 L 118 134 L 128.16267485762415 138.209517756016" fill="#000000" paint-order="stroke fill markers" stroke="none"/></g><g><path d=" M 128.16267485762415 129.790482243984 L 118 134 L 128.16267485762415 138.209517756016 L 128.16267485762415 129.790482243984" fill="none" paint-order="fill stroke markers" stroke="#000000" stroke-dasharray="" stroke-miterlimit="10"/></g><g><rect fill="#ffffff" height="13" stroke="none" transform="matrix(1 0 0 1 -102 -6)" width="78.04443359375" x="213" y="123"/></g><g><g><path fill="none" stroke="none"/><text dominant-baseline="central" fill="#000000" font-family="Arial" font-size="13px" font-style="normal" font-weight="normal" stroke="none" text-anchor="middle" text-decoration="undefined" transform="matrix(1 0 0 1 -102 -6)" x="252.022216796875" y="129.5">2 : run(void)</text></g></g><g><rect fill="#ffffff" height="28" stroke="none" transform="matrix(1 0 0 1 -102 -6)" width="14" x="206" y="140"/></g><g><path d=" M 104 134 L 118 134 L 118 162 L 104 162 L 104 134 Z Z" fill="none" paint-order="fill stroke markers" stroke="#000000" stroke-dasharray="" stroke-miterlimit="10"/></g><g><path d=" M 111 162 L 327 162" fill="none" paint-order="fill stroke markers" stroke="#000000" stroke-dasharray="" stroke-miterlimit="10"/></g><g><path d=" M 316.83732514237585 166.209517756016 L 327 162 L 316.83732514237585 157.790482243984" fill="#000000" paint-order="stroke fill markers" stroke="none"/></g><g><path d=" M 316.83732514237585 166.209517756016 L 327 162 L 316.83732514237585 157.790482243984 L 316.83732514237585 166.209517756016" fill="none" paint-order="fill stroke markers" stroke="#000000" stroke-dasharray="" stroke-miterlimit="10"/></g><g><rect fill="#ffffff" height="13" stroke="none" transform="matrix(1 0 0 1 -102 -6)" width="163.28076171875" x="240" y="152"/></g><g><g><path fill="none" stroke="none"/><text dominant-baseline="central" fill="#000000" font-family="Arial" font-size="13px" font-style="normal" font-weight="normal" stroke="none" text-anchor="middle" text-decoration="undefined" transform="matrix(1 0 0 1 -102 -6)" x="321.640380859375" y="158.5">3 : update(Session)</text></g></g><g><rect fill="#ffffff" height="80" stroke="none" transform="matrix(1 0 0 1 -102 -6)" width="14" x="429" y="168"/></g><g><path d=" M 327 162 L 341 162 L 341 242 L 327 242 L 327 162 Z Z" fill="none" paint-order="fill stroke markers" stroke="#000000" stroke-dasharray="" stroke-miterlimit="10"/></g><g><path d=" M 327 186 L 118 186" fill="none" paint-order="fill stroke markers" stroke="#000000" stroke-dasharray="" stroke-miterlimit="10"/></g><g><path d=" M 128.16267485762415 181.790482243984 L 118 186 L 128.16267485762415 190.209517756016" fill="#000000" paint-order="stroke fill markers" stroke="none"/></g><g><path d=" M 128.16267485762415 181.790482243984 L 118 186 L 128.16267485762415 190.209517756016 L 128.16267485762415 181.790482243984" fill="none" paint-order="fill stroke markers" stroke="#000000" stroke-dasharray="" stroke-miterlimit="10"/></g><g><rect fill="#ffffff" height="13" stroke="none" transform="matrix(1 0 0 1 -102 -6)" width="189.29345703125" x="229" y="196"/></g><g><g><path fill="none" stroke="none"/><text dominant-baseline="central" fill="#000000" font-family="Arial" font-size="13px" font-style="normal" font-weight="normal" stroke="none" text-anchor="middle" text-decoration="undefined" transform="matrix(1 0 0 1 -102 -6)" x="323.646728515625" y="202.5">4 : switchToController(HandlerId)</text></g></g><g><rect fill="#ffffff" height="104" stroke="none" transform="matrix(1 0 0 1 -102 -6)" width="14" x="206" y="192"/></g><g><path d=" M 104 186 L 118 186 L 118 290 L 104 290 L 104 186 Z Z" fill="none" paint-order="fill stroke markers" stroke="#000000" stroke-dasharray="" stroke-miterlimit="10"/></g><g><path d=" M 118 216 L 327 216" fill="none" paint-order="fill stroke markers" stroke="#000000" stroke-dasharray="3" stroke-miterlimit="10"/></g><g><path d=" M 316.83732514237585 220.209517756016 L 327 216 L 316.83732514237585 211.790482243984" fill="none" paint-order="fill stroke markers" stroke="#000000" stroke-dasharray="" stroke-miterlimit="10"/></g><g><rect fill="#ffffff" height="13" stroke="none" transform="matrix(1 0 0 1 -102 -6)" width="52.025390625" x="298" y="223"/></g><g><g><path fill="none" stroke="none"/><text dominant-baseline="central" fill="#000000" font-family="Arial" font-size="13px" font-style="normal" font-weight="normal" stroke="none" text-anchor="middle" text-decoration="undefined" transform="matrix(1 0 0 1 -102 -6)" x="324.0126953125" y="229.5">5 : return</text></g></g><g><path d=" M 334 250 L 118 250" fill="none" paint-order="fill stroke markers" stroke="#000000" stroke-dasharray="3" stroke-miterlimit="10"/></g><g><path d=" M 128.16267485762415 245.790482243984 L 118 250 L 128.16267485762415 254.209517756016" fill="none" paint-order="fill stroke markers" stroke="#000000" stroke-dasharray="" stroke-miterlimit="10"/></g><g><rect fill="#ffffff" height="13" stroke="none" transform="matrix(1 0 0 1 -102 -6)" width="101.88623046875" x="277" y="260"/></g><g><g><path fill="none" stroke="none"/><text dominant-baseline="central" fill="#000000" font-family="Arial" font-size="13px" font-style="normal" font-weight="normal" stroke="none" text-anchor="middle" text-decoration="undefined" transform="matrix(1 0 0 1 -102 -6)" x="327.943115234375" y="266.5">6 : return Session</text></g></g><g><path d=" M 111 290 L 463 290" fill="none" paint-order="fill stroke markers" stroke="#000000" stroke-dasharray="" stroke-miterlimit="10"/></g><g><path d=" M 452.8373251423759 294.209517756016 L 463 290 L 452.8373251423758 285.790482243984" fill="#000000" paint-order="stroke fill markers" stroke="none"/></g><g><path d=" M 452.8373251423759 294.209517756016 L 463 290 L 452.8373251423758 285.790482243984 L 452.8373251423759 294.209517756016" fill="none" paint-order="fill stroke markers" stroke="#000000" stroke-dasharray="" stroke-miterlimit="10"/></g><g><rect fill="#ffffff" height="13" stroke="none" transform="matrix(1 0 0 1 -102 -6)" width="112.734375" x="333" y="280"/></g><g><g><path fill="none" stroke="none"/><text dominant-baseline="central" fill="#000000" font-family="Arial" font-size="13px" font-style="normal" font-weight="normal" stroke="none" text-anchor="middle" text-decoration="undefined" transform="matrix(1 0 0 1 -102 -6)" x="389.3671875" y="286.5">7 : update(Session)</text></g></g><g><rect fill="#ffffff" height="64" stroke="none" transform="matrix(1 0 0 1 -102 -6)" width="14" x="565" y="296"/></g><g><path d=" M 463 290 L 477 290 L 477 354 L 463 354 L 463 290 Z Z" fill="none" paint-order="fill stroke markers" stroke="#000000" stroke-dasharray="" stroke-miterlimit="10"/></g><g><path d=" M 463 308 L 118 308" fill="none" paint-order="fill stroke markers" stroke="#000000" stroke-dasharray="" stroke-miterlimit="10"/></g><g><path d=" M 128.16267485762415 303.790482243984 L 118 308 L 128.16267485762415 312.209517756016" fill="#000000" paint-order="stroke fill markers" stroke="none"/></g><g><path d=" M 128.16267485762415 303.790482243984 L 118 308 L 128.16267485762415 312.209517756016 L 128.16267485762415 303.790482243984" fill="none" paint-order="fill stroke markers" stroke="#000000" stroke-dasharray="" stroke-miterlimit="10"/></g><g><rect fill="#ffffff" height="13" stroke="none" transform="matrix(1 0 0 1 -102 -6)" width="190.0107421875" x="296" y="318"/></g><g><g><path fill="none" stroke="none"/><text dominant-baseline="central" fill="#000000" font-family="Arial" font-size="13px" font-style="normal" font-weight="normal" stroke="none" text-anchor="middle" text-decoration="undefined" transform="matrix(1 0 0 1 -102 -6)" x="391.00537109375" y="324.5">8 : switchToController(HandlerId)</text></g></g><g><rect fill="#ffffff" height="86" stroke="none" transform="matrix(1 0 0 1 -102 -6)" width="14" x="206" y="314"/></g><g><path d=" M 104 308 L 118 308 L 118 394 L 104 394 L 104 308 Z Z" fill="none" paint-order="fill stroke markers" stroke="#000000" stroke-dasharray="" stroke-miterlimit="10"/></g><g><path d=" M 118 332 L 463 332" fill="none" paint-order="fill stroke markers" stroke="#000000" stroke-dasharray="3" stroke-miterlimit="10"/></g><g><path d=" M 452.8373251423759 336.209517756016 L 463 332 L 452.8373251423758 327.790482243984" fill="none" paint-order="fill stroke markers" stroke="#000000" stroke-dasharray="" stroke-miterlimit="10"/></g><g><rect fill="#ffffff" height="13" stroke="none" transform="matrix(1 0 0 1 -102 -6)" width="59.25537109375" x="363" y="343"/></g><g><g><path fill="none" stroke="none"/><text dominant-baseline="central" fill="#000000" font-family="Arial" font-size="13px" font-style="normal" font-weight="normal" stroke="none" text-anchor="middle" text-decoration="undefined" transform="matrix(1 0 0 1 -102 -6)" x="392.627685546875" y="349.5">9 : return</text></g></g><g><path d=" M 470 354 L 118 354" fill="none" paint-order="fill stroke markers" stroke="#000000" stroke-dasharray="3" stroke-miterlimit="10"/></g><g><path d=" M 128.16267485762415 349.790482243984 L 118 354 L 128.16267485762415 358.209517756016" fill="none" paint-order="fill stroke markers" stroke="#000000" stroke-dasharray="" stroke-miterlimit="10"/></g><g><rect fill="#ffffff" height="13" stroke="none" transform="matrix(1 0 0 1 -102 -6)" width="109.1162109375" x="341" y="364"/></g><g><g><path fill="none" stroke="none"/><text dominant-baseline="central" fill="#000000" font-family="Arial" font-size="13px" font-style="normal" font-weight="normal" stroke="none" text-anchor="middle" text-decoration="undefined" transform="matrix(1 0 0 1 -102 -6)" x="395.55810546875" y="370.5">10 : return Session</text></g></g><g><path d=" M 111 394 L 610 394" fill="none" paint-order="fill stroke markers" stroke="#000000" stroke-dasharray="" stroke-miterlimit="10"/></g><g><path d=" M 599.8373251423759 398.209517756016 L 610 394 L 599.8373251423758 389.790482243984" fill="#000000" paint-order="stroke fill markers" stroke="none"/></g><g><path d=" M 599.8373251423759 398.209517756016 L 610 394 L 599.8373251423758 389.790482243984 L 599.8373251423759 398.209517756016" fill="none" paint-order="fill stroke markers" stroke="#000000" stroke-dasharray="" stroke-miterlimit="10"/></g><g><rect fill="#ffffff" height="13" stroke="none" transform="matrix(1 0 0 1 -102 -6)" width="118.99951171875" x="403" y="384"/></g><g><g><path fill="none" stroke="none"/><text dominant-baseline="central" fill="#000000" font-family="Arial" font-size="13px" font-style="normal" font-weight="normal" stroke="none" text-anchor="middle" text-decoration="undefined" transform="matrix(1 0 0 1 -102 -6)" x="462.499755859375" y="390.5">11 : update(Session)</text></g></g><g><rect fill="#ffffff" height="88" stroke="none" transform="matrix(1 0 0 1 -102 -6)" width="14" x="712" y="400"/></g><g><path d=" M 610 394 L 624 394 L 624 482 L 610 482 L 610 394 Z Z" fill="none" paint-order="fill stroke markers" stroke="#000000" stroke-dasharray="" stroke-miterlimit="10"/></g><g><path d=" M 610 415 L 118 415" fill="none" paint-order="fill stroke markers" stroke="#000000" stroke-dasharray="" stroke-miterlimit="10"/></g><g><path d=" M 128.16267485762415 410.790482243984 L 118 415 L 128.16267485762415 419.209517756016" fill="#000000" paint-order="stroke fill markers" stroke="none"/></g><g><path d=" M 128.16267485762415 410.790482243984 L 118 415 L 128.16267485762415 419.209517756016 L 128.16267485762415 410.790482243984" fill="none" paint-order="fill stroke markers" stroke="#000000" stroke-dasharray="" stroke-miterlimit="10"/></g><g><rect fill="#ffffff" height="13" stroke="none" transform="matrix(1 0 0 1 -102 -6)" width="196.5234375" x="367" y="425"/></g><g><g><path fill="none" stroke="none"/><text dominant-baseline="central" fill="#000000" font-family="Arial" font-size="13px" font-style="normal" font-weight="normal" stroke="none" text-anchor="middle" text-decoration="undefined" transform="matrix(1 0 0 1 -102 -6)" x="465.26171875" y="431.5">12 : switchToController(HandlerId)</text></g></g><g><rect fill="#ffffff" height="107" stroke="none" transform="matrix(1 0 0 1 -102 -6)" width="14" x="206" y="421"/></g><g><path d=" M 104 415 L 118 415 L 118 522 L 104 522 L 104 415 Z Z" fill="none" paint-order="fill stroke markers" stroke="#000000" stroke-dasharray="" stroke-miterlimit="10"/></g><g><path d=" M 118 442 L 610 442" fill="none" paint-order="fill stroke markers" stroke="#000000" stroke-dasharray="3" stroke-miterlimit="10"/></g><g><path d=" M 599.8373251423759 446.209517756016 L 610 442 L 599.8373251423758 437.790482243984" fill="none" paint-order="fill stroke markers" stroke="#000000" stroke-dasharray="" stroke-miterlimit="10"/></g><g><rect fill="#ffffff" height="13" stroke="none" transform="matrix(1 0 0 1 -102 -6)" width="59.25537109375" x="437" y="455"/></g><g><g><path fill="none" stroke="none"/><text dominant-baseline="central" fill="#000000" font-family="Arial" font-size="13px" font-style="normal" font-weight="normal" stroke="none" text-anchor="middle" text-decoration="undefined" transform="matrix(1 0 0 1 -102 -6)" x="466.627685546875" y="461.5">13 : return</text></g></g><g><path d=" M 617 482 L 118 482" fill="none" paint-order="fill stroke markers" stroke="#000000" stroke-dasharray="3" stroke-miterlimit="10"/></g><g><path d=" M 128.16267485762415 477.790482243984 L 118 482 L 128.16267485762415 486.209517756016" fill="none" paint-order="fill stroke markers" stroke="#000000" stroke-dasharray="" stroke-miterlimit="10"/></g><g><rect fill="#ffffff" height="13" stroke="none" transform="matrix(1 0 0 1 -102 -6)" width="109.1162109375" x="414" y="492"/></g><g><g><path fill="none" stroke="none"/><text dominant-baseline="central" fill="#000000" font-family="Arial" font-size="13px" font-style="normal" font-weight="normal" stroke="none" text-anchor="middle" text-decoration="undefined" transform="matrix(1 0 0 1 -102 -6)" x="468.55810546875" y="498.5">14 : return Session</text></g></g><g><path d=" M 111 522 L 779 522" fill="none" paint-order="fill stroke markers" stroke="#000000" stroke-dasharray="" stroke-miterlimit="10"/></g><g><path d=" M 768.8373251423759 526.209517756016 L 779 522 L 768.8373251423758 517.790482243984" fill="#000000" paint-order="stroke fill markers" stroke="none"/></g><g><path d=" M 768.8373251423759 526.209517756016 L 779 522 L 768.8373251423758 517.790482243984 L 768.8373251423759 526.209517756016" fill="none" paint-order="fill stroke markers" stroke="#000000" stroke-dasharray="" stroke-miterlimit="10"/></g><g><rect fill="#ffffff" height="13" stroke="none" transform="matrix(1 0 0 1 -102 -6)" width="119.96435546875" x="488" y="512"/></g><g><g><path fill="none" stroke="none"/><text dominant-baseline="central" fill="#000000" font-family="Arial" font-size="13px" font-style="normal" font-weight="normal" stroke="none" text-anchor="middle" text-decoration="undefined" transform="matrix(1 0 0 1 -102 -6)" x="547.982177734375" y="518.5">15 : update(Session)</text></g></g><g><rect fill="#ffffff" height="104" stroke="none" transform="matrix(1 0 0 1 -102 -6)" width="14" x="881" y="528"/></g><g><path d=" M 779 522 L 793 522 L 793 626 L 779 626 L 779 522 Z Z" fill="none" paint-order="fill stroke markers" stroke="#000000" stroke-dasharray="" stroke-miterlimit="10"/></g><g><path d=" M 779 554 L 118 554" fill="none" paint-order="fill stroke markers" stroke="#000000" stroke-dasharray="" stroke-miterlimit="10"/></g><g><path d=" M 128.16267485762415 549.790482243984 L 118 554 L 128.16267485762415 558.209517756016" fill="#000000" paint-order="stroke fill markers" stroke="none"/></g><g><path d=" M 128.16267485762415 549.790482243984 L 118 554 L 128.16267485762415 558.209517756016 L 128.16267485762415 549.790482243984" fill="none" paint-order="fill stroke markers" stroke="#000000" stroke-dasharray="" stroke-miterlimit="10"/></g><g><rect fill="#ffffff" height="13" stroke="none" transform="matrix(1 0 0 1 -102 -6)" width="196.5234375" x="451" y="564"/></g><g><g><path fill="none" stroke="none"/><text dominant-baseline="central" fill="#000000" font-family="Arial" font-size="13px" font-style="normal" font-weight="normal" stroke="none" text-anchor="middle" text-decoration="undefined" transform="matrix(1 0 0 1 -102 -6)" x="549.26171875" y="570.5">16 : switchToController(HandlerId)</text></g></g><g><rect fill="#ffffff" height="112" stroke="none" transform="matrix(1 0 0 1 -102 -6)" width="14" x="206" y="560"/></g><g><path d=" M 104 554 L 118 554 L 118 666 L 104 666 L 104 554 Z Z" fill="none" paint-order="fill stroke markers" stroke="#000000" stroke-dasharray="" stroke-miterlimit="10"/></g><g><path d=" M 118 586 L 779 586" fill="none" paint-order="fill stroke markers" stroke="#000000" stroke-dasharray="3" stroke-miterlimit="10"/></g><g><path d=" M 768.8373251423759 590.209517756016 L 779 586 L 768.8373251423758 581.790482243984" fill="none" paint-order="fill stroke markers" stroke="#000000" stroke-dasharray="" stroke-miterlimit="10"/></g><g><rect fill="#ffffff" height="13" stroke="none" transform="matrix(1 0 0 1 -102 -6)" width="59.25537109375" x="521" y="599"/></g><g><g><path fill="none" stroke="none"/><text dominant-baseline="central" fill="#000000" font-family="Arial" font-size="13px" font-style="normal" font-weight="normal" stroke="none" text-anchor="middle" text-decoration="undefined" transform="matrix(1 0 0 1 -102 -6)" x="550.627685546875" y="605.5">17 : return</text></g></g><g><path d=" M 786 626 L 118 626" fill="none" paint-order="fill stroke markers" stroke="#000000" stroke-dasharray="3" stroke-miterlimit="10"/></g><g><path d=" M 128.16267485762415 621.790482243984 L 118 626 L 128.16267485762415 630.209517756016" fill="none" paint-order="fill stroke markers" stroke="#000000" stroke-dasharray="" stroke-miterlimit="10"/></g><g><rect fill="#ffffff" height="13" stroke="none" transform="matrix(1 0 0 1 -102 -6)" width="109.1162109375" x="499" y="636"/></g><g><g><path fill="none" stroke="none"/><text dominant-baseline="central" fill="#000000" font-family="Arial" font-size="13px" font-style="normal" font-weight="normal" stroke="none" text-anchor="middle" text-decoration="undefined" transform="matrix(1 0 0 1 -102 -6)" x="553.55810546875" y="642.5">18 : return Session</text></g></g><g><path d=" M 111 666 L 946 666" fill="none" paint-order="fill stroke markers" stroke="#000000" stroke-dasharray="" stroke-miterlimit="10"/></g><g><path d=" M 935.8373251423759 670.209517756016 L 946 666 L 935.8373251423759 661.790482243984" fill="#000000" paint-order="stroke fill markers" stroke="none"/></g><g><path d=" M 935.8373251423759 670.209517756016 L 946 666 L 935.8373251423759 661.790482243984 L 935.8373251423759 670.209517756016" fill="none" paint-order="fill stroke markers" stroke="#000000" stroke-dasharray="" stroke-miterlimit="10"/></g><g><rect fill="#ffffff" height="13" stroke="none" transform="matrix(1 0 0 1 -102 -6)" width="119.96435546875" x="571" y="656"/></g><g><g><path fill="none" stroke="none"/><text dominant-baseline="central" fill="#000000" font-family="Arial" font-size="13px" font-style="normal" font-weight="normal" stroke="none" text-anchor="middle" text-decoration="undefined" transform="matrix(1 0 0 1 -102 -6)" x="630.982177734375" y="662.5">19 : update(Session)</text></g></g><g><rect fill="#ffffff" height="88" stroke="none" transform="matrix(1 0 0 1 -102 -6)" width="14" x="1048" y="672"/></g><g><path d=" M 946 666 L 960 666 L 960 754 L 946 754 L 946 666 Z Z" fill="none" paint-order="fill stroke markers" stroke="#000000" stroke-dasharray="" stroke-miterlimit="10"/></g><g><path d=" M 946 698 L 118 698" fill="none" paint-order="fill stroke markers" stroke="#000000" stroke-dasharray="" stroke-miterlimit="10"/></g><g><path d=" M 128.16267485762415 693.790482243984 L 118 698 L 128.16267485762415 702.209517756016" fill="#000000" paint-order="stroke fill markers" stroke="none"/></g><g><path d=" M 128.16267485762415 693.790482243984 L 118 698 L 128.16267485762415 702.209517756016 L 128.16267485762415 693.790482243984" fill="none" paint-order="fill stroke markers" stroke="#000000" stroke-dasharray="" stroke-miterlimit="10"/></g><g><rect fill="#ffffff" height="13" stroke="none" transform="matrix(1 0 0 1 -102 -6)" width="196.5234375" x="535" y="708"/></g><g><g><path fill="none" stroke="none"/><text dominant-baseline="central" fill="#000000" font-family="Arial" font-size="13px" font-style="normal" font-weight="normal" stroke="none" text-anchor="middle" text-decoration="undefined" transform="matrix(1 0 0 1 -102 -6)" x="633.26171875" y="714.5">20 : switchToController(HandlerId)</text></g></g><g><rect fill="#ffffff" height="104" stroke="none" transform="matrix(1 0 0 1 -102 -6)" width="14" x="206" y="704"/></g><g><path d=" M 104 698 L 118 698 L 118 802 L 104 802 L 104 698 Z Z" fill="none" paint-order="fill stroke markers" stroke="#000000" stroke-dasharray="" stroke-miterlimit="10"/></g><g><path d=" M 118 725 L 946 725" fill="none" paint-order="fill stroke markers" stroke="#000000" stroke-dasharray="3" stroke-miterlimit="10"/></g><g><path d=" M 935.8373251423759 729.209517756016 L 946 725 L 935.8373251423759 720.790482243984" fill="none" paint-order="fill stroke markers" stroke="#000000" stroke-dasharray="" stroke-miterlimit="10"/></g><g><rect fill="#ffffff" height="13" stroke="none" transform="matrix(1 0 0 1 -102 -6)" width="59.25537109375" x="605" y="735"/></g><g><g><path fill="none" stroke="none"/><text dominant-baseline="central" fill="#000000" font-family="Arial" font-size="13px" font-style="normal" font-weight="normal" stroke="none" text-anchor="middle" text-decoration="undefined" transform="matrix(1 0 0 1 -102 -6)" x="634.627685546875" y="741.5">21 : return</text></g></g><g><path d=" M 953 754 L 118 754" fill="none" paint-order="fill stroke markers" stroke="#000000" stroke-dasharray="3" stroke-miterlimit="10"/></g><g><path d=" M 128.16267485762415 749.790482243984 L 118 754 L 128.16267485762415 758.209517756016" fill="none" paint-order="fill stroke markers" stroke="#000000" stroke-dasharray="" stroke-miterlimit="10"/></g><g><rect fill="#ffffff" height="13" stroke="none" transform="matrix(1 0 0 1 -102 -6)" width="109.1162109375" x="582" y="764"/></g><g><g><path fill="none" stroke="none"/><text dominant-baseline="central" fill="#000000" font-family="Arial" font-size="13px" font-style="normal" font-weight="normal" stroke="none" text-anchor="middle" text-decoration="undefined" transform="matrix(1 0 0 1 -102 -6)" x="636.55810546875" y="770.5">22 : return Session</text></g></g><g><path d=" M 111 802 L 779 802" fill="none" paint-order="fill stroke markers" stroke="#000000" stroke-dasharray="" stroke-miterlimit="10"/></g><g><path d=" M 768.8373251423759 806.209517756016 L 779 802 L 768.8373251423758 797.790482243984" fill="#000000" paint-order="stroke fill markers" stroke="none"/></g><g><path d=" M 768.8373251423759 806.209517756016 L 779 802 L 768.8373251423758 797.790482243984 L 768.8373251423759 806.209517756016" fill="none" paint-order="fill stroke markers" stroke="#000000" stroke-dasharray="" stroke-miterlimit="10"/></g><g><rect fill="#ffffff" height="13" stroke="none" transform="matrix(1 0 0 1 -102 -6)" width="130.08251953125" x="482" y="792"/></g><g><g><path fill="none" stroke="none"/><text dominant-baseline="central" fill="#000000" font-family="Arial" font-size="13px" font-style="normal" font-weight="normal" stroke="none" text-anchor="middle" text-decoration="undefined" transform="matrix(1 0 0 1 -102 -6)" x="547.041259765625" y="798.5">23 : update(Session)</text></g></g><g><rect fill="#ffffff" height="80" stroke="none" transform="matrix(1 0 0 1 -102 -6)" width="14" x="881" y="808"/></g><g><path d=" M 779 802 L 793 802 L 793 882 L 779 882 L 779 802 Z Z" fill="none" paint-order="fill stroke markers" stroke="#000000" stroke-dasharray="" stroke-miterlimit="10"/></g><g><path d=" M 779 826 L 118 826" fill="none" paint-order="fill stroke markers" stroke="#000000" stroke-dasharray="" stroke-miterlimit="10"/></g><g><path d=" M 128.16267485762415 821.790482243984 L 118 826 L 128.16267485762415 830.209517756016" fill="#000000" paint-order="stroke fill markers" stroke="none"/></g><g><path d=" M 128.16267485762415 821.790482243984 L 118 826 L 128.16267485762415 830.209517756016 L 128.16267485762415 821.790482243984" fill="none" paint-order="fill stroke markers" stroke="#000000" stroke-dasharray="" stroke-miterlimit="10"/></g><g><rect fill="#ffffff" height="13" stroke="none" transform="matrix(1 0 0 1 -102 -6)" width="85.2744140625" x="507" y="836"/></g><g><g><path fill="none" stroke="none"/><text dominant-baseline="central" fill="#000000" font-family="Arial" font-size="13px" font-style="normal" font-weight="normal" stroke="none" text-anchor="middle" text-decoration="undefined" transform="matrix(1 0 0 1 -102 -6)" x="549.63720703125" y="842.5">24 : stop(void)</text></g></g><g><rect fill="#ffffff" height="56" stroke="none" transform="matrix(1 0 0 1 -102 -6)" width="14" x="206" y="832"/></g><g><path d=" M 104 826 L 118 826 L 118 882 L 104 882 L 104 826 Z Z" fill="none" paint-order="fill stroke markers" stroke="#000000" stroke-dasharray="" stroke-miterlimit="10"/></g><g><path d=" M 118 855 L 779 855" fill="none" paint-order="fill stroke markers" stroke="#000000" stroke-dasharray="3" stroke-miterlimit="10"/></g><g><path d=" M 768.8373251423759 859.209517756016 L 779 855 L 768.8373251423758 850.790482243984" fill="none" paint-order="fill stroke markers" stroke="#000000" stroke-dasharray="" stroke-miterlimit="10"/></g><g><rect fill="#ffffff" height="13" stroke="none" transform="matrix(1 0 0 1 -102 -6)" width="59.25537109375" x="523" y="863"/></g><g><g><path fill="none" stroke="none"/><text dominant-baseline="central" fill="#000000" font-family="Arial" font-size="13px" font-style="normal" font-weight="normal" stroke="none" text-anchor="middle" text-decoration="undefined" transform="matrix(1 0 0 1 -102 -6)" x="552.627685546875" y="869.5">25 : return</text></g></g><g><path d=" M 786 882 L 118 882" fill="none" paint-order="fill stroke markers" stroke="#000000" stroke-dasharray="3" stroke-miterlimit="10"/></g><g><path d=" M 128.16267485762415 877.790482243984 L 118 882 L 128.16267485762415 886.209517756016" fill="none" paint-order="fill stroke markers" stroke="#000000" stroke-dasharray="" stroke-miterlimit="10"/></g><g><rect fill="#ffffff" height="13" stroke="none" transform="matrix(1 0 0 1 -102 -6)" width="109.1162109375" x="499" y="892"/></g><g><g><path fill="none" stroke="none"/><text dominant-baseline="central" fill="#000000" font-family="Arial" font-size="13px" font-style="normal" font-weight="normal" stroke="none" text-anchor="middle" text-decoration="undefined" transform="matrix(1 0 0 1 -102 -6)" x="553.55810546875" y="898.5">26 : return Session</text></g></g></g></svg>