<?xml version="1.0" encoding="UTF-8" standalone="no"?><svg xmlns="http://www.w3.org/2000/svg" xmlns:xlink="http://www.w3.org/1999/xlink" height="228" version="1.1" width="429"><defs/><g><g><rect fill="#C0C0C0" fill-opacity="0.2" height="64" stroke="none" transform="matrix(1 0 0 1 -86 -182)" width="112" x="175" y="199"/></g><g><rect fill="#ffffff" height="64" stroke="none" transform="matrix(1 0 0 1 -86 -182)" width="112" x="168" y="192"/></g><g><path d=" M 82 10 L 194 10 L 194 74 L 82 74 L 82 10 Z Z" fill="none" paint-order="fill stroke markers" stroke="#000000" stroke-dasharray="" stroke-miterlimit="10"/></g><g><path d=" M 82 35 L 195 35" fill="none" paint-order="fill stroke markers" stroke="#000000" stroke-dasharray="" stroke-miterlimit="10"/></g><g><path d=" M 82 45 L 195 45" fill="none" paint-order="fill stroke markers" stroke="#000000" stroke-dasharray="" stroke-miterlimit="10"/></g><g><g><path fill="none" stroke="none"/><text dominant-baseline="central" fill="#000000" font-family="Arial" font-size="13px" font-style="italic" font-weight="bold" stroke="none" text-anchor="middle" text-decoration="undefined" transform="matrix(1 0 0 1 -86 -182)" x="224.5" y="205.5">State</text></g></g><g><g><path fill="none" stroke="none"/><text dominant-baseline="central" fill="#000000" font-family="Arial" font-size="13px" font-style="normal" font-weight="normal" stroke="none" text-anchor="start" text-decoration="undefined" transform="matrix(1 0 0 1 -86 -182)" x="173" y="238.5">+handle()</text></g></g><g><rect fill="#C0C0C0" fill-opacity="0.2" height="64" stroke="none" transform="matrix(1 0 0 1 -86 -182)" width="128" x="383" y="199"/></g><g><rect fill="#ffffff" height="64" stroke="none" transform="matrix(1 0 0 1 -86 -182)" width="128" x="376" y="192"/></g><g><path d=" M 290 10 L 418 10 L 418 74 L 290 74 L 290 10 Z Z" fill="none" paint-order="fill stroke markers" stroke="#000000" stroke-dasharray="" stroke-miterlimit="10"/></g><g><path d=" M 290 35 L 419 35" fill="none" paint-order="fill stroke markers" stroke="#000000" stroke-dasharray="" stroke-miterlimit="10"/></g><g><path d=" M 290 45 L 419 45" fill="none" paint-order="fill stroke markers" stroke="#000000" stroke-dasharray="" stroke-miterlimit="10"/></g><g><g><path fill="none" stroke="none"/><text dominant-baseline="central" fill="#000000" font-family="Arial" font-size="13px" font-style="normal" font-weight="bold" stroke="none" text-anchor="middle" text-decoration="undefined" transform="matrix(1 0 0 1 -86 -182)" x="440.5" y="205.5">Context</text></g></g><g><g><path fill="none" stroke="none"/><text dominant-baseline="central" fill="#000000" font-family="Arial" font-size="13px" font-style="normal" font-weight="normal" stroke="none" text-anchor="start" text-decoration="undefined" transform="matrix(1 0 0 1 -86 -182)" x="381" y="238.5">+request()</text></g></g><g><rect fill="#C0C0C0" fill-opacity="0.2" height="64" stroke="none" transform="matrix(1 0 0 1 -86 -182)" width="112" x="255" y="343"/></g><g><rect fill="#ffffff" height="64" stroke="none" transform="matrix(1 0 0 1 -86 -182)" width="112" x="248" y="336"/></g><g><path d=" M 162 154 L 274 154 L 274 218 L 162 218 L 162 154 Z Z" fill="none" paint-order="fill stroke markers" stroke="#000000" stroke-dasharray="" stroke-miterlimit="10"/></g><g><path d=" M 162 179 L 275 179" fill="none" paint-order="fill stroke markers" stroke="#000000" stroke-dasharray="" stroke-miterlimit="10"/></g><g><path d=" M 162 189 L 275 189" fill="none" paint-order="fill stroke markers" stroke="#000000" stroke-dasharray="" stroke-miterlimit="10"/></g><g><g><path fill="none" stroke="none"/><text dominant-baseline="central" fill="#000000" font-family="Arial" font-size="13px" font-style="normal" font-weight="bold" stroke="none" text-anchor="middle" text-decoration="undefined" transform="matrix(1 0 0 1 -86 -182)" x="304.5" y="349.5">ConcreteStateA</text></g></g><g><g><path fill="none" stroke="none"/><text dominant-baseline="central" fill="#000000" font-family="Arial" font-size="13px" font-style="normal" font-weight="normal" stroke="none" text-anchor="start" text-decoration="undefined" transform="matrix(1 0 0 1 -86 -182)" x="253" y="382.5">+handle()</text></g></g><g><rect fill="#C0C0C0" fill-opacity="0.2" height="64" stroke="none" transform="matrix(1 0 0 1 -86 -182)" width="112" x="103" y="343"/></g><g><rect fill="#ffffff" height="64" stroke="none" transform="matrix(1 0 0 1 -86 -182)" width="112" x="96" y="336"/></g><g><path d=" M 10 154 L 122 154 L 122 218 L 10 218 L 10 154 Z Z" fill="none" paint-order="fill stroke markers" stroke="#000000" stroke-dasharray="" stroke-miterlimit="10"/></g><g><path d=" M 10 179 L 123 179" fill="none" paint-order="fill stroke markers" stroke="#000000" stroke-dasharray="" stroke-miterlimit="10"/></g><g><path d=" M 10 189 L 123 189" fill="none" paint-order="fill stroke markers" stroke="#000000" stroke-dasharray="" stroke-miterlimit="10"/></g><g><g><path fill="none" stroke="none"/><text dominant-baseline="central" fill="#000000" font-family="Arial" font-size="13px" font-style="normal" font-weight="bold" stroke="none" text-anchor="middle" text-decoration="undefined" transform="matrix(1 0 0 1 -86 -182)" x="152.5" y="349.5">ConcreteStateB</text></g></g><g><g><path fill="none" stroke="none"/><text dominant-baseline="central" fill="#000000" font-family="Arial" font-size="13px" font-style="normal" font-weight="normal" stroke="none" text-anchor="start" text-decoration="undefined" transform="matrix(1 0 0 1 -86 -182)" x="101" y="382.5">+handle()</text></g></g><g><path d=" M 66 154 L 66 122 L 138 122 L 138 74" fill="none" paint-order="fill stroke markers" stroke="#000000" stroke-dasharray="" stroke-miterlimit="10"/></g><g><path d=" M 146.41903551203197 94.32534971524831 L 138 74 L 129.58096448796803 94.32534971524831" fill="#FFFFFF" paint-order="stroke fill markers" stroke="none"/></g><g><path d=" M 146.41903551203197 94.32534971524831 L 138 74 L 129.58096448796803 94.32534971524831 L 146.41903551203197 94.32534971524831" fill="none" paint-order="fill stroke markers" stroke="#000000" stroke-dasharray="" stroke-miterlimit="10"/></g><g><path d=" M 218 154 L 218 122 L 138 122 L 138 74" fill="none" paint-order="fill stroke markers" stroke="#000000" stroke-dasharray="" stroke-miterlimit="10"/></g><g><path d=" M 146.41903551203197 94.32534971524831 L 138 74 L 129.58096448796803 94.32534971524831" fill="#FFFFFF" paint-order="stroke fill markers" stroke="none"/></g><g><path d=" M 146.41903551203197 94.32534971524831 L 138 74 L 129.58096448796803 94.32534971524831 L 146.41903551203197 94.32534971524831" fill="none" paint-order="fill stroke markers" stroke="#000000" stroke-dasharray="" stroke-miterlimit="10"/></g><g><path d=" M 194 42 L 290 42" fill="none" paint-order="fill stroke markers" stroke="#000000" stroke-dasharray="" stroke-miterlimit="10"/></g><g><path d=" M 279.83732514237585 46.209517756016 L 290 42 L 279.83732514237585 37.790482243984 L 268 42" fill="#FFFFFF" paint-order="stroke fill markers" stroke="none"/></g><g><path d=" M 279.83732514237585 46.209517756016 L 290 42 L 279.83732514237585 37.790482243984 L 268 42 L 279.83732514237585 46.209517756016" fill="none" paint-order="fill stroke markers" stroke="#000000" stroke-dasharray="" stroke-miterlimit="10"/></g><g><path d=" M 306 162 L 396.66259765625 162 L 406.66259765625 172 L 406.66259765625 217 L 306 217 L 306 162" fill="#ffffff" paint-order="stroke fill markers" stroke="none"/></g><g><path d=" M 306 162 L 396.66259765625 162 L 406.66259765625 172 L 406.66259765625 217 L 306 217 L 306 162 L 306 162" fill="none" paint-order="fill stroke markers" stroke="#000000" stroke-dasharray="" stroke-miterlimit="10"/></g><g><path d=" M 396.66259765625 162 L 396.66259765625 172 L 406.66259765625 172 L 396.66259765625 162" fill="none" paint-order="fill stroke markers" stroke="#000000" stroke-dasharray="" stroke-miterlimit="10"/></g><g><g><path fill="none" stroke="none"/><text dominant-baseline="text-before-edge" fill="#000000" font-family="Arial" font-size="13px" font-style="normal" font-weight="normal" stroke="none" text-anchor="middle" text-decoration="undefined" transform="matrix(1 0 0 1 -86 -182)" x="442.831298828125" y="365">State.handle()</text></g></g><g><path d=" M 354 74 L 354 162" fill="none" paint-order="fill stroke markers" stroke="#000000" stroke-dasharray="3" stroke-miterlimit="10"/></g></g></svg>