<?xml version="1.0" encoding="UTF-8" standalone="no"?>
<svg xmlns="http://www.w3.org/2000/svg" height="388" version="1.1"
     width="957">
    <defs/>
    <g>
        <g>
            <rect fill="#C0C0C0" fill-opacity="0.2" height="15" stroke="none" transform="matrix(1 0 0 1 -134 -78)"
                  width="374.4" x="151" y="95"/>
        </g>
        <g>
            <rect fill="#C0C0C0" fill-opacity="0.2" height="354" stroke="none" transform="matrix(1 0 0 1 -134 -78)"
                  width="936" x="151" y="109"/>
        </g>
        <g>
            <rect fill="#ffffff" height="353" stroke="none" transform="matrix(1 0 0 1 -134 -78)" width="936" x="144"
                  y="103"/>
        </g>
        <g>
            <path d=" M 10 25 L 946 25 L 946 378 L 10 378 L 10 25 Z Z" fill="none" paint-order="fill stroke markers"
                  stroke="#000000" stroke-dasharray="" stroke-miterlimit="10"/>
        </g>
        <g>
            <rect fill="#ffffff" height="15" stroke="none" transform="matrix(1 0 0 1 -134 -78)" width="374.4" x="144"
                  y="88"/>
        </g>
        <g>
            <path d=" M 10 10 L 384.4 10 L 384.4 25 L 10 25 L 10 10 Z Z" fill="none" paint-order="fill stroke markers"
                  stroke="#000000" stroke-dasharray="" stroke-miterlimit="10"/>
        </g>
        <g>
            <rect fill="#ffffff" height="354" stroke="none" transform="matrix(1 0 0 1 -134 -78)" width="936" x="144"
                  y="102"/>
        </g>
        <g>
            <path d=" M 10 24 L 946 24 L 946 378 L 10 378 L 10 24 Z Z" fill="none" paint-order="fill stroke markers"
                  stroke="#000000" stroke-dasharray="" stroke-miterlimit="10"/>
        </g>
        <g>
            <g>
                <path fill="none" stroke="none"/>
                <text dominant-baseline="central" fill="#000000" font-family="Arial" font-size="13px"
                      font-style="normal" font-weight="bold" stroke="none" text-anchor="middle"
                      text-decoration="undefined" transform="matrix(1 0 0 1 -134 -78)" x="612.5" y="116.5">Test
                </text>
            </g>
        </g>
        <g>
            <rect fill="#C0C0C0" fill-opacity="0.2" height="58" stroke="none" transform="matrix(1 0 0 1 -134 -78)"
                  width="80" x="505" y="149"/>
        </g>
        <g>
            <rect fill="#ffffff" height="58" stroke="none" transform="matrix(1 0 0 1 -134 -78)" width="80" x="498"
                  y="142"/>
        </g>
        <g>
            <path d=" M 364 64 L 444 64 L 444 122 L 364 122 L 364 64 Z Z" fill="none" paint-order="fill stroke markers"
                  stroke="#000000" stroke-dasharray="" stroke-miterlimit="10"/>
        </g>
        <g>
            <path d=" M 364 89 L 444 89" fill="none" paint-order="fill stroke markers" stroke="#000000"
                  stroke-dasharray="" stroke-miterlimit="10"/>
        </g>
        <g>
            <path d=" M 364 99 L 444 99" fill="none" paint-order="fill stroke markers" stroke="#000000"
                  stroke-dasharray="" stroke-miterlimit="10"/>
        </g>
        <g>
            <g>
                <path fill="none" stroke="none"/>
                <text dominant-baseline="central" fill="#000000" font-family="Arial" font-size="13px"
                      font-style="normal" font-weight="bold" stroke="none" text-anchor="middle"
                      text-decoration="undefined" transform="matrix(1 0 0 1 -134 -78)" x="538.5" y="155.5">BaseTest
                </text>
            </g>
        </g>
        <g>
            <g>
                <path fill="none" stroke="none"/>
                <text dominant-baseline="central" fill="#000000" font-family="Arial" font-size="13px"
                      font-style="normal" font-weight="normal" stroke="none" text-anchor="start"
                      text-decoration="undefined" transform="matrix(1 0 0 1 -134 -78)" x="503" y="188.5">+setUp()
                </text>
            </g>
        </g>
        <g>
            <rect fill="#C0C0C0" fill-opacity="0.2" height="45" stroke="none" transform="matrix(1 0 0 1 -134 -78)"
                  width="155.65966796875" x="345" y="285"/>
        </g>
        <g>
            <rect fill="#ffffff" height="45" stroke="none" transform="matrix(1 0 0 1 -134 -78)" width="155.65966796875"
                  x="338" y="278"/>
        </g>
        <g>
            <path d=" M 204 200 L 359.65966796875 200 L 359.65966796875 245 L 204 245 L 204 200 Z Z" fill="none"
                  paint-order="fill stroke markers" stroke="#000000" stroke-dasharray="" stroke-miterlimit="10"/>
        </g>
        <g>
            <path d=" M 204 225 L 359.65966796875 225" fill="none" paint-order="fill stroke markers" stroke="#000000"
                  stroke-dasharray="" stroke-miterlimit="10"/>
        </g>
        <g>
            <path d=" M 204 235 L 359.65966796875 235" fill="none" paint-order="fill stroke markers" stroke="#000000"
                  stroke-dasharray="" stroke-miterlimit="10"/>
        </g>
        <g>
            <g>
                <path fill="none" stroke="none"/>
                <text dominant-baseline="central" fill="#000000" font-family="Arial" font-size="13px"
                      font-style="normal" font-weight="bold" stroke="none" text-anchor="middle"
                      text-decoration="undefined" transform="matrix(1 0 0 1 -134 -78)" x="416.329833984375" y="291.5">
                    AlbumLoadHandlerTest
                </text>
            </g>
        </g>
        <g>
            <rect fill="#C0C0C0" fill-opacity="0.2" height="45" stroke="none" transform="matrix(1 0 0 1 -134 -78)"
                  width="140.53955078125" x="441" y="341"/>
        </g>
        <g>
            <rect fill="#ffffff" height="45" stroke="none" transform="matrix(1 0 0 1 -134 -78)" width="140.53955078125"
                  x="434" y="334"/>
        </g>
        <g>
            <path d=" M 300 256 L 440.53955078125 256 L 440.53955078125 301 L 300 301 L 300 256 Z Z" fill="none"
                  paint-order="fill stroke markers" stroke="#000000" stroke-dasharray="" stroke-miterlimit="10"/>
        </g>
        <g>
            <path d=" M 300 281 L 440.53955078125 281" fill="none" paint-order="fill stroke markers" stroke="#000000"
                  stroke-dasharray="" stroke-miterlimit="10"/>
        </g>
        <g>
            <path d=" M 300 291 L 440.53955078125 291" fill="none" paint-order="fill stroke markers" stroke="#000000"
                  stroke-dasharray="" stroke-miterlimit="10"/>
        </g>
        <g>
            <g>
                <path fill="none" stroke="none"/>
                <text dominant-baseline="central" fill="#000000" font-family="Arial" font-size="13px"
                      font-style="normal" font-weight="bold" stroke="none" text-anchor="middle"
                      text-decoration="undefined" transform="matrix(1 0 0 1 -134 -78)" x="504.769775390625" y="347.5">
                    PlaybackHandlerTest
                </text>
            </g>
        </g>
        <g>
            <rect fill="#C0C0C0" fill-opacity="0.2" height="45" stroke="none" transform="matrix(1 0 0 1 -134 -78)"
                  width="202.61328125" x="689" y="341"/>
        </g>
        <g>
            <rect fill="#ffffff" height="45" stroke="none" transform="matrix(1 0 0 1 -134 -78)" width="202.61328125"
                  x="682" y="334"/>
        </g>
        <g>
            <path d=" M 548 256 L 750.61328125 256 L 750.61328125 301 L 548 301 L 548 256 Z Z" fill="none"
                  paint-order="fill stroke markers" stroke="#000000" stroke-dasharray="" stroke-miterlimit="10"/>
        </g>
        <g>
            <path d=" M 548 281 L 750.61328125 281" fill="none" paint-order="fill stroke markers" stroke="#000000"
                  stroke-dasharray="" stroke-miterlimit="10"/>
        </g>
        <g>
            <path d=" M 548 291 L 750.61328125 291" fill="none" paint-order="fill stroke markers" stroke="#000000"
                  stroke-dasharray="" stroke-miterlimit="10"/>
        </g>
        <g>
            <g>
                <path fill="none" stroke="none"/>
                <text dominant-baseline="central" fill="#000000" font-family="Arial" font-size="13px"
                      font-style="normal" font-weight="bold" stroke="none" text-anchor="middle"
                      text-decoration="undefined" transform="matrix(1 0 0 1 -134 -78)" x="783.806640625" y="347.5">
                    RegistrationLoginHandlersTest
                </text>
            </g>
        </g>
        <g>
            <rect fill="#C0C0C0" fill-opacity="0.2" height="45" stroke="none" transform="matrix(1 0 0 1 -134 -78)"
                  width="120.2841796875" x="521" y="285"/>
        </g>
        <g>
            <rect fill="#ffffff" height="45" stroke="none" transform="matrix(1 0 0 1 -134 -78)" width="120.2841796875"
                  x="514" y="278"/>
        </g>
        <g>
            <path d=" M 380 200 L 500.2841796875 200 L 500.2841796875 245 L 380 245 L 380 200 Z Z" fill="none"
                  paint-order="fill stroke markers" stroke="#000000" stroke-dasharray="" stroke-miterlimit="10"/>
        </g>
        <g>
            <path d=" M 380 225 L 500.2841796875 225" fill="none" paint-order="fill stroke markers" stroke="#000000"
                  stroke-dasharray="" stroke-miterlimit="10"/>
        </g>
        <g>
            <path d=" M 380 235 L 500.2841796875 235" fill="none" paint-order="fill stroke markers" stroke="#000000"
                  stroke-dasharray="" stroke-miterlimit="10"/>
        </g>
        <g>
            <g>
                <path fill="none" stroke="none"/>
                <text dominant-baseline="central" fill="#000000" font-family="Arial" font-size="13px"
                      font-style="normal" font-weight="bold" stroke="none" text-anchor="middle"
                      text-decoration="undefined" transform="matrix(1 0 0 1 -134 -78)" x="574.64208984375" y="291.5">
                    HomeHandlerTest
                </text>
            </g>
        </g>
        <g>
            <path d=" M 284 200 L 284 168 L 404 168 L 404 122" fill="none" paint-order="fill stroke markers"
                  stroke="#000000" stroke-dasharray="" stroke-miterlimit="10"/>
        </g>
        <g>
            <path d=" M 412.419035512032 142.3253497152483 L 404 122 L 395.580964487968 142.3253497152483"
                  fill="#FFFFFF" paint-order="stroke fill markers" stroke="none"/>
        </g>
        <g>
            <path d=" M 412.419035512032 142.3253497152483 L 404 122 L 395.580964487968 142.3253497152483 L 412.419035512032 142.3253497152483"
                  fill="none" paint-order="fill stroke markers" stroke="#000000" stroke-dasharray=""
                  stroke-miterlimit="10"/>
        </g>
        <g>
            <path d=" M 372 256 L 372 168 L 404 168 L 404 122" fill="none" paint-order="fill stroke markers"
                  stroke="#000000" stroke-dasharray="" stroke-miterlimit="10"/>
        </g>
        <g>
            <path d=" M 412.419035512032 142.3253497152483 L 404 122 L 395.580964487968 142.3253497152483"
                  fill="#FFFFFF" paint-order="stroke fill markers" stroke="none"/>
        </g>
        <g>
            <path d=" M 412.419035512032 142.3253497152483 L 404 122 L 395.580964487968 142.3253497152483 L 412.419035512032 142.3253497152483"
                  fill="none" paint-order="fill stroke markers" stroke="#000000" stroke-dasharray=""
                  stroke-miterlimit="10"/>
        </g>
        <g>
            <path d=" M 660 256 L 660 168 L 404 168 L 404 122" fill="none" paint-order="fill stroke markers"
                  stroke="#000000" stroke-dasharray="" stroke-miterlimit="10"/>
        </g>
        <g>
            <path d=" M 412.419035512032 142.3253497152483 L 404 122 L 395.580964487968 142.3253497152483"
                  fill="#FFFFFF" paint-order="stroke fill markers" stroke="none"/>
        </g>
        <g>
            <path d=" M 412.419035512032 142.3253497152483 L 404 122 L 395.580964487968 142.3253497152483 L 412.419035512032 142.3253497152483"
                  fill="none" paint-order="fill stroke markers" stroke="#000000" stroke-dasharray=""
                  stroke-miterlimit="10"/>
        </g>
        <g>
            <path d=" M 444 200 L 444 168 L 404 168 L 404 122" fill="none" paint-order="fill stroke markers"
                  stroke="#000000" stroke-dasharray="" stroke-miterlimit="10"/>
        </g>
        <g>
            <path d=" M 412.419035512032 142.3253497152483 L 404 122 L 395.580964487968 142.3253497152483"
                  fill="#FFFFFF" paint-order="stroke fill markers" stroke="none"/>
        </g>
        <g>
            <path d=" M 412.419035512032 142.3253497152483 L 404 122 L 395.580964487968 142.3253497152483 L 412.419035512032 142.3253497152483"
                  fill="none" paint-order="fill stroke markers" stroke="#000000" stroke-dasharray=""
                  stroke-miterlimit="10"/>
        </g>
        <g>
            <rect fill="#C0C0C0" fill-opacity="0.2" height="45" stroke="none" transform="matrix(1 0 0 1 -134 -78)"
                  width="168.65966796875" x="897" y="341"/>
        </g>
        <g>
            <rect fill="#ffffff" height="45" stroke="none" transform="matrix(1 0 0 1 -134 -78)" width="168.65966796875"
                  x="890" y="334"/>
        </g>
        <g>
            <path d=" M 756 256 L 924.65966796875 256 L 924.65966796875 301 L 756 301 L 756 256 Z Z" fill="none"
                  paint-order="fill stroke markers" stroke="#000000" stroke-dasharray="" stroke-miterlimit="10"/>
        </g>
        <g>
            <path d=" M 756 281 L 924.65966796875 281" fill="none" paint-order="fill stroke markers" stroke="#000000"
                  stroke-dasharray="" stroke-miterlimit="10"/>
        </g>
        <g>
            <path d=" M 756 291 L 924.65966796875 291" fill="none" paint-order="fill stroke markers" stroke="#000000"
                  stroke-dasharray="" stroke-miterlimit="10"/>
        </g>
        <g>
            <g>
                <path fill="none" stroke="none"/>
                <text dominant-baseline="central" fill="#000000" font-family="Arial" font-size="13px"
                      font-style="normal" font-weight="bold" stroke="none" text-anchor="middle"
                      text-decoration="undefined" transform="matrix(1 0 0 1 -134 -78)" x="974.829833984375" y="347.5">
                    SongPlaysCountDAOTest
                </text>
            </g>
        </g>
        <g>
            <rect fill="#C0C0C0" fill-opacity="0.2" height="45" stroke="none" transform="matrix(1 0 0 1 -134 -78)"
                  width="160.75048828125" x="817" y="285"/>
        </g>
        <g>
            <rect fill="#ffffff" height="45" stroke="none" transform="matrix(1 0 0 1 -134 -78)" width="160.75048828125"
                  x="810" y="278"/>
        </g>
        <g>
            <path d=" M 676 200 L 836.75048828125 200 L 836.75048828125 245 L 676 245 L 676 200 Z Z" fill="none"
                  paint-order="fill stroke markers" stroke="#000000" stroke-dasharray="" stroke-miterlimit="10"/>
        </g>
        <g>
            <path d=" M 676 225 L 836.75048828125 225" fill="none" paint-order="fill stroke markers" stroke="#000000"
                  stroke-dasharray="" stroke-miterlimit="10"/>
        </g>
        <g>
            <path d=" M 676 235 L 836.75048828125 235" fill="none" paint-order="fill stroke markers" stroke="#000000"
                  stroke-dasharray="" stroke-miterlimit="10"/>
        </g>
        <g>
            <g>
                <path fill="none" stroke="none"/>
                <text dominant-baseline="central" fill="#000000" font-family="Arial" font-size="13px"
                      font-style="normal" font-weight="bold" stroke="none" text-anchor="middle"
                      text-decoration="undefined" transform="matrix(1 0 0 1 -134 -78)" x="890.875244140625" y="291.5">
                    PodcastPlaylistDAOTest
                </text>
            </g>
        </g>
        <g>
            <rect fill="#C0C0C0" fill-opacity="0.2" height="45" stroke="none" transform="matrix(1 0 0 1 -134 -78)"
                  width="125.33056640625" x="601" y="397"/>
        </g>
        <g>
            <rect fill="#ffffff" height="45" stroke="none" transform="matrix(1 0 0 1 -134 -78)" width="125.33056640625"
                  x="594" y="390"/>
        </g>
        <g>
            <path d=" M 460 312 L 585.33056640625 312 L 585.33056640625 357 L 460 357 L 460 312 Z Z" fill="none"
                  paint-order="fill stroke markers" stroke="#000000" stroke-dasharray="" stroke-miterlimit="10"/>
        </g>
        <g>
            <path d=" M 460 337 L 585.33056640625 337" fill="none" paint-order="fill stroke markers" stroke="#000000"
                  stroke-dasharray="" stroke-miterlimit="10"/>
        </g>
        <g>
            <path d=" M 460 347 L 585.33056640625 347" fill="none" paint-order="fill stroke markers" stroke="#000000"
                  stroke-dasharray="" stroke-miterlimit="10"/>
        </g>
        <g>
            <g>
                <path fill="none" stroke="none"/>
                <text dominant-baseline="central" fill="#000000" font-family="Arial" font-size="13px"
                      font-style="normal" font-weight="bold" stroke="none" text-anchor="middle"
                      text-decoration="undefined" transform="matrix(1 0 0 1 -134 -78)" x="657.165283203125" y="403.5">
                    CustomerDAOTest
                </text>
            </g>
        </g>
        <g>
            <rect fill="#C0C0C0" fill-opacity="0.2" height="45" stroke="none" transform="matrix(1 0 0 1 -134 -78)"
                  width="142.67236328125" x="257" y="341"/>
        </g>
        <g>
            <rect fill="#ffffff" height="45" stroke="none" transform="matrix(1 0 0 1 -134 -78)" width="142.67236328125"
                  x="250" y="334"/>
        </g>
        <g>
            <path d=" M 116 256 L 258.67236328125 256 L 258.67236328125 301 L 116 301 L 116 256 Z Z" fill="none"
                  paint-order="fill stroke markers" stroke="#000000" stroke-dasharray="" stroke-miterlimit="10"/>
        </g>
        <g>
            <path d=" M 116 281 L 258.67236328125 281" fill="none" paint-order="fill stroke markers" stroke="#000000"
                  stroke-dasharray="" stroke-miterlimit="10"/>
        </g>
        <g>
            <path d=" M 116 291 L 258.67236328125 291" fill="none" paint-order="fill stroke markers" stroke="#000000"
                  stroke-dasharray="" stroke-miterlimit="10"/>
        </g>
        <g>
            <g>
                <path fill="none" stroke="none"/>
                <text dominant-baseline="central" fill="#000000" font-family="Arial" font-size="13px"
                      font-style="normal" font-weight="bold" stroke="none" text-anchor="middle"
                      text-decoration="undefined" transform="matrix(1 0 0 1 -134 -78)" x="321.836181640625" y="347.5">
                    SongPlaylistDAOTest
                </text>
            </g>
        </g>
        <g>
            <rect fill="#C0C0C0" fill-opacity="0.2" height="45" stroke="none" transform="matrix(1 0 0 1 -134 -78)"
                  width="97.14697265625" x="225" y="285"/>
        </g>
        <g>
            <rect fill="#ffffff" height="45" stroke="none" transform="matrix(1 0 0 1 -134 -78)" width="97.14697265625"
                  x="218" y="278"/>
        </g>
        <g>
            <path d=" M 84 200 L 181.14697265625 200 L 181.14697265625 245 L 84 245 L 84 200 Z Z" fill="none"
                  paint-order="fill stroke markers" stroke="#000000" stroke-dasharray="" stroke-miterlimit="10"/>
        </g>
        <g>
            <path d=" M 84 225 L 181.14697265625 225" fill="none" paint-order="fill stroke markers" stroke="#000000"
                  stroke-dasharray="" stroke-miterlimit="10"/>
        </g>
        <g>
            <path d=" M 84 235 L 181.14697265625 235" fill="none" paint-order="fill stroke markers" stroke="#000000"
                  stroke-dasharray="" stroke-miterlimit="10"/>
        </g>
        <g>
            <g>
                <path fill="none" stroke="none"/>
                <text dominant-baseline="central" fill="#000000" font-family="Arial" font-size="13px"
                      font-style="normal" font-weight="bold" stroke="none" text-anchor="middle"
                      text-decoration="undefined" transform="matrix(1 0 0 1 -134 -78)" x="267.073486328125" y="291.5">
                    SongDAOTest
                </text>
            </g>
        </g>
        <g>
            <rect fill="#C0C0C0" fill-opacity="0.2" height="45" stroke="none" transform="matrix(1 0 0 1 -134 -78)"
                  width="135.4296875" x="161" y="397"/>
        </g>
        <g>
            <rect fill="#ffffff" height="45" stroke="none" transform="matrix(1 0 0 1 -134 -78)" width="135.4296875"
                  x="154" y="390"/>
        </g>
        <g>
            <path d=" M 20 312 L 155.4296875 312 L 155.4296875 357 L 20 357 L 20 312 Z Z" fill="none"
                  paint-order="fill stroke markers" stroke="#000000" stroke-dasharray="" stroke-miterlimit="10"/>
        </g>
        <g>
            <path d=" M 20 337 L 155.4296875 337" fill="none" paint-order="fill stroke markers" stroke="#000000"
                  stroke-dasharray="" stroke-miterlimit="10"/>
        </g>
        <g>
            <path d=" M 20 347 L 155.4296875 347" fill="none" paint-order="fill stroke markers" stroke="#000000"
                  stroke-dasharray="" stroke-miterlimit="10"/>
        </g>
        <g>
            <g>
                <path fill="none" stroke="none"/>
                <text dominant-baseline="central" fill="#000000" font-family="Arial" font-size="13px"
                      font-style="normal" font-weight="bold" stroke="none" text-anchor="middle"
                      text-decoration="undefined" transform="matrix(1 0 0 1 -134 -78)" x="222.21484375" y="403.5">
                    SuggestionDAOTest
                </text>
            </g>
        </g>
        <g>
            <rect fill="#C0C0C0" fill-opacity="0.2" height="45" stroke="none" transform="matrix(1 0 0 1 -134 -78)"
                  width="98.6005859375" x="697" y="285"/>
        </g>
        <g>
            <rect fill="#ffffff" height="45" stroke="none" transform="matrix(1 0 0 1 -134 -78)" width="98.6005859375"
                  x="690" y="278"/>
        </g>
        <g>
            <path d=" M 556 200 L 654.6005859375 200 L 654.6005859375 245 L 556 245 L 556 200 Z Z" fill="none"
                  paint-order="fill stroke markers" stroke="#000000" stroke-dasharray="" stroke-miterlimit="10"/>
        </g>
        <g>
            <path d=" M 556 225 L 654.6005859375 225" fill="none" paint-order="fill stroke markers" stroke="#000000"
                  stroke-dasharray="" stroke-miterlimit="10"/>
        </g>
        <g>
            <path d=" M 556 235 L 654.6005859375 235" fill="none" paint-order="fill stroke markers" stroke="#000000"
                  stroke-dasharray="" stroke-miterlimit="10"/>
        </g>
        <g>
            <g>
                <path fill="none" stroke="none"/>
                <text dominant-baseline="central" fill="#000000" font-family="Arial" font-size="13px"
                      font-style="normal" font-weight="bold" stroke="none" text-anchor="middle"
                      text-decoration="undefined" transform="matrix(1 0 0 1 -134 -78)" x="739.80029296875" y="291.5">
                    ArtistDAOTest
                </text>
            </g>
        </g>
        <g>
            <path d=" M 148 200 L 148 168 L 404 168 L 404 122" fill="none" paint-order="fill stroke markers"
                  stroke="#000000" stroke-dasharray="" stroke-miterlimit="10"/>
        </g>
        <g>
            <path d=" M 412.419035512032 142.3253497152483 L 404 122 L 395.580964487968 142.3253497152483"
                  fill="#FFFFFF" paint-order="stroke fill markers" stroke="none"/>
        </g>
        <g>
            <path d=" M 412.419035512032 142.3253497152483 L 404 122 L 395.580964487968 142.3253497152483 L 412.419035512032 142.3253497152483"
                  fill="none" paint-order="fill stroke markers" stroke="#000000" stroke-dasharray=""
                  stroke-miterlimit="10"/>
        </g>
        <g>
            <path d=" M 604 200 L 604 168 L 404 168 L 404 122" fill="none" paint-order="fill stroke markers"
                  stroke="#000000" stroke-dasharray="" stroke-miterlimit="10"/>
        </g>
        <g>
            <path d=" M 412.419035512032 142.3253497152483 L 404 122 L 395.580964487968 142.3253497152483"
                  fill="#FFFFFF" paint-order="stroke fill markers" stroke="none"/>
        </g>
        <g>
            <path d=" M 412.419035512032 142.3253497152483 L 404 122 L 395.580964487968 142.3253497152483 L 412.419035512032 142.3253497152483"
                  fill="none" paint-order="fill stroke markers" stroke="#000000" stroke-dasharray=""
                  stroke-miterlimit="10"/>
        </g>
        <g>
            <path d=" M 748 200 L 748 168 L 404 168 L 404 122" fill="none" paint-order="fill stroke markers"
                  stroke="#000000" stroke-dasharray="" stroke-miterlimit="10"/>
        </g>
        <g>
            <path d=" M 412.419035512032 142.3253497152483 L 404 122 L 395.580964487968 142.3253497152483"
                  fill="#FFFFFF" paint-order="stroke fill markers" stroke="none"/>
        </g>
        <g>
            <path d=" M 412.419035512032 142.3253497152483 L 404 122 L 395.580964487968 142.3253497152483 L 412.419035512032 142.3253497152483"
                  fill="none" paint-order="fill stroke markers" stroke="#000000" stroke-dasharray=""
                  stroke-miterlimit="10"/>
        </g>
        <g>
            <path d=" M 188 256 L 188 168 L 404 168 L 404 122" fill="none" paint-order="fill stroke markers"
                  stroke="#000000" stroke-dasharray="" stroke-miterlimit="10"/>
        </g>
        <g>
            <path d=" M 412.419035512032 142.3253497152483 L 404 122 L 395.580964487968 142.3253497152483"
                  fill="#FFFFFF" paint-order="stroke fill markers" stroke="none"/>
        </g>
        <g>
            <path d=" M 412.419035512032 142.3253497152483 L 404 122 L 395.580964487968 142.3253497152483 L 412.419035512032 142.3253497152483"
                  fill="none" paint-order="fill stroke markers" stroke="#000000" stroke-dasharray=""
                  stroke-miterlimit="10"/>
        </g>
        <g>
            <path d=" M 68 312 L 68 168 L 404 168 L 404 122" fill="none" paint-order="fill stroke markers"
                  stroke="#000000" stroke-dasharray="" stroke-miterlimit="10"/>
        </g>
        <g>
            <path d=" M 412.419035512032 142.3253497152483 L 404 122 L 395.580964487968 142.3253497152483"
                  fill="#FFFFFF" paint-order="stroke fill markers" stroke="none"/>
        </g>
        <g>
            <path d=" M 412.419035512032 142.3253497152483 L 404 122 L 395.580964487968 142.3253497152483 L 412.419035512032 142.3253497152483"
                  fill="none" paint-order="fill stroke markers" stroke="#000000" stroke-dasharray=""
                  stroke-miterlimit="10"/>
        </g>
        <g>
            <path d=" M 844 256 L 844 168 L 404 168 L 404 122" fill="none" paint-order="fill stroke markers"
                  stroke="#000000" stroke-dasharray="" stroke-miterlimit="10"/>
        </g>
        <g>
            <path d=" M 412.419035512032 142.3253497152483 L 404 122 L 395.580964487968 142.3253497152483"
                  fill="#FFFFFF" paint-order="stroke fill markers" stroke="none"/>
        </g>
        <g>
            <path d=" M 412.419035512032 142.3253497152483 L 404 122 L 395.580964487968 142.3253497152483 L 412.419035512032 142.3253497152483"
                  fill="none" paint-order="fill stroke markers" stroke="#000000" stroke-dasharray=""
                  stroke-miterlimit="10"/>
        </g>
        <g>
            <path d=" M 524 312 L 524 168 L 404 168 L 404 122" fill="none" paint-order="fill stroke markers"
                  stroke="#000000" stroke-dasharray="" stroke-miterlimit="10"/>
        </g>
        <g>
            <path d=" M 412.419035512032 142.3253497152483 L 404 122 L 395.580964487968 142.3253497152483"
                  fill="#FFFFFF" paint-order="stroke fill markers" stroke="none"/>
        </g>
        <g>
            <path d=" M 412.419035512032 142.3253497152483 L 404 122 L 395.580964487968 142.3253497152483 L 412.419035512032 142.3253497152483"
                  fill="none" paint-order="fill stroke markers" stroke="#000000" stroke-dasharray=""
                  stroke-miterlimit="10"/>
        </g>
    </g>
</svg>